<?xml version="1.0" encoding="utf-8"?>
<!-- Uploaded to: SVG Repo, www.svgrepo.com, Generator: SVG Repo Mixer Tools -->
<svg width="800px" height="800px" viewBox="-8 0 48 48" xmlns="http://www.w3.org/2000/svg">
  <g id="Group_27" data-name="Group 27" transform="translate(-509 -89)">
    <path id="Path_31" data-name="Path 31" d="M520,113.2l4.167-8.2H520l10.333-9.8-4.5,7.8H530Z" fill="#7d50f9"/>
    <path id="Path_32" data-name="Path 32" d="M541,105a16,16,0,1,0-23,14.383V125a2,2,0,0,0-2,2v2a2,2,0,0,0,2,2h1v1a2,2,0,0,0,2,2h1v1a2,2,0,0,0,2,2h2a2,2,0,0,0,2-2v-1h1a2,2,0,0,0,2-2v-1h1a2,2,0,0,0,2-2v-2a2,2,0,0,0-2-2v-5.617A16,16,0,0,0,541,105Zm-15,30h-2v-1h2Zm3-3h-8v-1h8Zm3-3H518v-2h14Zm-1.4-11.172-.6.261V125h-4v-6h-2v6h-4v-6.911l-.6-.261a14,14,0,1,1,11.2,0Z" fill="#303033"/>
  </g>
</svg>