<?xml version="1.0" standalone="no"?>
<!DOCTYPE svg PUBLIC "-//W3C//DTD SVG 20010904//EN"
 "http://www.w3.org/TR/2001/REC-SVG-20010904/DTD/svg10.dtd">
<svg version="1.0" xmlns="http://www.w3.org/2000/svg"
 width="7517.000000pt" height="5000.000000pt" viewBox="0 0 7517.000000 5000.000000"
 preserveAspectRatio="xMidYMid meet">

<g transform="translate(0.000000,5000.000000) scale(0.100000,-0.100000)"
fill="#000000" stroke="none">
<path d="M26365 33105 c-129 -28 -245 -97 -437 -257 -300 -251 -341 -276 -638
-382 -102 -37 -230 -83 -285 -103 -459 -165 -662 -376 -870 -903 -31 -79 -84
-205 -117 -280 -125 -282 -166 -436 -154 -580 21 -246 104 -523 208 -697 18
-31 71 -98 118 -148 62 -66 97 -114 127 -174 l41 -82 102 192 c56 105 148 284
205 398 127 254 227 398 390 564 77 78 138 126 285 224 243 163 442 232 496
172 17 -19 20 -43 24 -218 6 -194 6 -197 37 -263 39 -84 118 -169 182 -197
131 -56 304 -52 667 15 171 31 288 47 374 51 157 7 190 -5 364 -122 182 -122
282 -152 534 -162 l144 -6 26 -41 c47 -75 91 -182 171 -418 44 -128 91 -258
104 -288 l25 -56 -69 23 c-60 21 -172 46 -292 67 -33 6 -36 9 -27 26 18 33 12
105 -11 134 -39 49 -215 121 -376 153 -191 38 -480 16 -664 -50 -96 -34 -133
-105 -95 -179 16 -31 25 -26 -89 -53 -100 -23 -168 -62 -180 -103 -7 -24 -13
-31 -25 -26 -90 38 -131 46 -215 46 -52 0 -110 -6 -137 -15 l-47 -15 -6 29
c-13 58 -128 123 -291 165 l-71 18 18 30 c44 72 11 143 -86 187 -259 117 -632
119 -941 4 -93 -34 -128 -70 -129 -130 0 -25 -2 -45 -5 -45 -29 0 -190 -24
-247 -36 -60 -13 -77 -21 -102 -50 -57 -65 -34 -156 51 -200 16 -8 48 -46 73
-84 24 -37 51 -72 59 -77 13 -7 17 -37 21 -163 7 -278 58 -432 180 -550 106
-101 259 -158 487 -180 178 -18 349 6 476 66 91 44 199 143 252 233 64 107
150 402 150 513 0 48 11 108 20 108 5 0 31 15 58 34 68 45 134 60 244 54 73
-5 100 -11 152 -37 35 -17 71 -42 80 -56 9 -14 23 -25 31 -25 12 0 15 -21 15
-117 0 -130 26 -317 61 -428 33 -110 77 -183 159 -265 89 -90 162 -131 297
-168 90 -24 114 -26 298 -26 180 -1 208 1 280 22 254 74 378 241 430 582 8 52
15 116 15 142 0 37 4 50 20 58 11 6 41 36 65 68 26 32 67 70 97 87 45 26 55
38 69 77 12 37 17 43 25 31 19 -30 305 218 361 314 26 44 28 55 27 148 0 72
-8 131 -27 212 -48 200 -33 286 84 473 83 133 297 572 329 675 14 46 22 98 22
151 1 119 -22 163 -174 326 -343 369 -461 532 -644 895 -121 240 -176 326
-265 414 -160 160 -334 185 -603 87 -356 -129 -332 -123 -446 -122 -134 0
-177 17 -366 147 -167 114 -225 144 -313 163 -79 16 -108 16 -186 -1z m-962
-3482 c-24 -2 -62 -2 -85 0 -24 2 -5 4 42 4 47 0 66 -2 43 -4z m104 -9 c-3 -3
-12 -4 -19 -1 -8 3 -5 6 6 6 11 1 17 -2 13 -5z m13 -104 c115 -19 273 -61 360
-96 157 -63 230 -139 230 -243 0 -129 -67 -417 -124 -529 -65 -129 -177 -235
-294 -281 -124 -49 -316 -63 -495 -36 -355 53 -502 206 -538 557 -22 223 3
380 81 493 53 76 160 122 339 144 90 12 349 6 441 -9z m2140 -5 l65 -14 -75 6
c-41 2 -127 8 -190 12 l-115 8 125 1 c73 1 152 -5 190 -13z m120 -121 c116
-20 254 -63 314 -98 55 -32 97 -91 127 -177 53 -150 5 -496 -94 -669 -65 -115
-174 -191 -322 -224 -162 -36 -374 -30 -535 15 -314 87 -462 340 -464 794 -1
175 7 198 87 252 167 112 571 161 887 107z"/>
<path d="M25225 29186 c-41 -18 -82 -68 -95 -114 -14 -51 -12 -71 9 -117 60
-129 208 -155 298 -52 74 84 63 197 -23 264 -29 21 -49 28 -98 30 -37 2 -73
-2 -91 -11z"/>
<path d="M27375 29071 c-45 -20 -92 -70 -101 -107 -4 -14 -4 -49 -2 -79 8 -94
79 -157 178 -157 187 0 246 259 78 341 -54 26 -100 26 -153 2z"/>
<path d="M41540 32795 c-94 -19 -181 -51 -300 -110 -184 -92 -207 -97 -505
-105 -209 -5 -270 -10 -310 -24 -104 -37 -171 -89 -271 -213 -95 -117 -170
-185 -304 -276 -176 -119 -251 -211 -366 -452 -150 -311 -183 -533 -125 -822
12 -56 53 -205 91 -331 87 -283 114 -402 140 -602 47 -365 113 -610 247 -916
l44 -100 51 15 51 16 -7 90 c-9 129 7 93 66 -149 134 -554 228 -695 518 -779
133 -39 256 -50 478 -44 228 6 304 21 442 88 67 33 102 59 165 123 48 48 93
105 112 141 17 33 68 168 113 300 98 288 130 359 173 386 41 24 112 25 152 1
45 -28 76 -94 165 -357 107 -316 134 -369 235 -471 64 -65 97 -90 165 -123
138 -67 214 -82 442 -88 380 -10 600 46 743 191 102 103 170 271 259 646 28
117 55 205 66 220 l20 25 0 -102 0 -102 38 -10 c54 -15 126 -65 160 -112 l30
-40 7 28 c29 118 95 479 104 573 78 818 80 1736 6 2140 -36 194 -77 290 -165
390 -92 105 -144 182 -198 294 -83 170 -118 199 -317 262 -79 25 -182 69 -300
130 -99 50 -211 101 -250 113 -98 29 -252 51 -368 51 -59 0 -131 8 -185 19
-146 33 -237 42 -497 51 -171 6 -288 15 -370 29 -139 24 -342 27 -445 6z m-2
-1836 c9 -7 40 -34 68 -60 99 -92 218 -134 374 -132 159 1 278 41 520 174 95
52 134 51 212 -8 152 -113 234 -135 559 -153 103 -6 213 -17 244 -26 98 -25
173 -72 255 -158 235 -247 266 -270 375 -271 l60 -1 12 -74 c30 -179 63 -552
63 -714 l0 -88 -27 7 c-59 15 -242 44 -318 50 -132 10 -135 12 -135 50 0 51
-45 94 -152 147 -234 116 -532 182 -868 195 -190 7 -223 0 -269 -52 -40 -46
-55 -103 -41 -155 11 -42 49 -93 84 -112 12 -7 121 -17 266 -24 292 -14 410
-24 410 -34 0 -4 -44 -10 -97 -14 -227 -15 -449 -59 -658 -128 -200 -66 -255
-78 -354 -78 -95 0 -145 11 -356 80 -220 72 -450 113 -760 136 l-100 8 65 8
c36 4 182 14 326 21 297 15 314 20 353 101 41 84 14 176 -66 223 l-45 26 -171
-6 c-350 -12 -651 -80 -881 -196 -122 -62 -151 -91 -151 -151 0 -39 0 -39 -45
-45 -50 -6 -255 -40 -309 -51 l-34 -7 6 294 c9 449 52 687 162 881 l27 48 45
-31 c69 -48 201 -106 271 -120 184 -35 374 41 659 267 166 131 233 175 290
189 50 13 101 6 131 -16z m-278 -1614 c145 -20 296 -58 365 -90 119 -57 144
-100 145 -247 0 -174 -73 -463 -150 -593 -115 -193 -319 -285 -635 -285 -219
0 -422 42 -530 111 -87 55 -157 201 -209 429 -67 298 -54 494 37 581 51 49
189 91 357 109 124 13 486 4 620 -15z m2325 15 c236 -23 368 -74 412 -160 45
-89 53 -202 27 -378 -34 -231 -104 -436 -179 -528 -45 -54 -128 -96 -260 -130
-123 -32 -372 -44 -505 -25 -205 30 -355 116 -446 257 -121 187 -204 620 -144
751 41 91 214 161 490 197 198 27 426 32 605 16z"/>
<path d="M41004 28941 c-32 -14 -82 -77 -93 -118 -36 -129 40 -263 149 -263
62 0 119 47 145 119 29 83 14 162 -44 224 -32 34 -44 40 -87 43 -27 2 -58 0
-70 -5z"/>
<path d="M43029 28927 c-131 -88 -99 -335 47 -363 45 -8 76 0 115 33 71 60 89
169 43 261 -44 89 -132 118 -205 69z"/>
<path d="M8482 30540 c-95 -13 -162 -36 -217 -72 -45 -30 -57 -33 -120 -32
-46 0 -127 14 -240 42 -93 23 -215 47 -270 53 -219 24 -407 -23 -580 -146 -72
-51 -206 -189 -255 -263 -29 -43 -56 -65 -158 -128 -111 -69 -131 -77 -220
-95 -269 -55 -519 -180 -685 -343 -161 -157 -250 -345 -276 -580 l-11 -97 -82
-122 c-45 -67 -134 -194 -198 -282 -65 -88 -127 -179 -139 -202 -36 -71 -51
-150 -51 -265 0 -162 32 -309 140 -643 21 -67 57 -195 79 -285 22 -91 74 -265
116 -387 47 -139 75 -239 75 -265 0 -54 45 -136 95 -174 l36 -27 33 39 c19 22
58 53 87 69 48 26 64 30 139 30 47 0 96 -2 110 -5 22 -4 27 1 46 50 19 48 23
90 33 335 26 604 82 1025 159 1189 68 143 395 423 686 586 54 30 121 75 147
98 l49 44 52 -19 c74 -25 192 -23 288 6 41 13 145 55 230 93 198 90 236 103
367 124 148 25 433 25 558 0 320 -62 518 -181 696 -420 203 -271 465 -837 565
-1219 25 -95 47 -178 50 -186 3 -10 17 -12 57 -7 74 10 119 43 154 113 l28 58
-3 845 c-3 769 -2 852 14 927 31 149 5 216 -154 391 -119 131 -176 207 -209
278 -37 82 -34 100 37 209 34 53 71 121 81 151 54 154 -13 292 -181 371 -130
61 -345 116 -585 148 -140 19 -482 28 -573 15z"/>
<path d="M57208 29329 c-136 -9 -259 -34 -368 -71 -160 -56 -190 -81 -190
-154 0 -35 5 -47 31 -68 37 -32 38 -32 202 -2 155 29 332 50 582 71 99 8 201
17 227 21 59 7 92 40 92 91 0 71 -60 95 -294 113 -137 10 -128 10 -282 -1z"/>
<path d="M58757 29319 c-92 -13 -135 -28 -152 -52 -22 -31 -19 -81 8 -112 21
-25 28 -26 247 -45 300 -26 455 -45 633 -77 141 -25 150 -25 182 -10 19 9 35
21 35 26 0 28 -167 119 -310 169 -95 33 -122 38 -265 51 -71 6 -117 17 -159
35 -62 28 -110 31 -219 15z"/>
<path d="M51700 28758 c-118 -12 -227 -43 -330 -95 -77 -39 -111 -63 -181
-133 -101 -100 -155 -186 -200 -320 -41 -122 -51 -264 -24 -356 32 -111 107
-309 177 -467 39 -87 69 -160 67 -161 -2 -2 -44 -10 -94 -18 -73 -13 -115 -28
-225 -81 -643 -315 -1218 -784 -1565 -1277 -236 -336 -380 -690 -440 -1085
-20 -129 -28 -451 -14 -575 59 -548 340 -1012 795 -1316 135 -90 374 -208 374
-185 0 5 -9 62 -20 127 -11 66 -23 165 -27 220 l-6 102 -71 4 c-92 5 -162 37
-244 112 -120 112 -191 261 -199 421 -11 203 63 375 195 452 36 21 61 28 126
31 92 4 157 -14 240 -69 26 -17 48 -30 50 -28 2 2 18 49 36 104 129 397 307
700 569 969 228 233 463 379 743 460 48 14 109 28 135 31 l48 6 90 -138 c106
-162 286 -404 415 -558 118 -142 361 -405 425 -461 l50 -44 -128 0 c-177 0
-217 -19 -217 -103 0 -27 8 -42 35 -66 38 -33 38 -33 180 -31 218 2 431 -71
629 -217 l108 -80 78 40 c281 143 526 -70 507 -443 -5 -106 -32 -192 -88 -286
-50 -83 -151 -179 -225 -215 -58 -27 -64 -33 -70 -67 -21 -124 -77 -322 -148
-522 -41 -114 -147 -323 -224 -440 -142 -218 -330 -422 -510 -555 -76 -56 -81
-62 -77 -90 3 -16 12 -109 20 -205 33 -377 87 -586 187 -720 21 -29 21 -30 2
-51 -44 -50 -279 -249 -399 -339 -518 -388 -946 -495 -1289 -325 -181 90 -356
296 -442 519 -27 70 -54 100 -54 59 0 -35 80 -196 143 -291 192 -288 463 -423
782 -391 160 16 295 58 475 149 241 121 413 246 786 574 l44 38 33 -24 c69
-53 165 -88 242 -88 40 0 41 1 67 60 14 33 34 63 43 66 25 10 65 -13 65 -36 0
-11 3 -20 6 -20 4 0 154 -25 333 -55 859 -143 1460 -210 1706 -188 274 24 486
-48 720 -245 152 -129 325 -366 460 -633 272 -536 454 -1220 600 -2249 115
-815 260 -1455 481 -2132 55 -167 68 -198 84 -198 11 0 26 -10 34 -22 8 -13
60 -140 116 -283 288 -738 436 -1077 668 -1535 223 -439 233 -460 295 -615
119 -300 197 -643 197 -871 0 -40 3 -74 8 -74 4 0 50 7 102 15 369 57 692 58
822 3 40 -17 53 -19 77 -9 21 9 44 10 87 2 120 -20 374 -46 392 -40 15 5 -94
286 -173 444 -73 149 -166 288 -285 425 -192 224 -274 383 -315 616 -20 112
-39 1274 -25 1476 24 321 68 497 259 1023 67 184 125 388 151 527 11 62 27
151 36 198 67 374 349 854 915 1560 140 174 215 277 234 318 23 52 47 80 139
165 417 387 746 627 1080 788 186 89 245 106 546 153 117 19 251 57 350 100
l75 32 -121 -120 c-179 -180 -248 -298 -224 -387 24 -87 101 -167 375 -386
264 -211 348 -310 360 -426 11 -109 -12 -228 -139 -715 -102 -391 -110 -549
-35 -755 38 -105 88 -197 218 -396 173 -267 217 -346 276 -501 78 -201 82
-325 15 -534 -48 -153 -51 -204 -14 -287 20 -44 33 -61 52 -66 56 -14 76 31
43 96 -29 56 -26 104 13 223 65 195 70 315 23 488 -50 179 -131 339 -316 625
-172 265 -214 347 -246 485 -36 157 -13 305 125 815 60 222 83 354 84 476 1
102 0 107 -37 182 -50 101 -156 208 -386 391 -192 153 -279 236 -305 291 -17
36 -17 38 8 88 62 128 314 368 646 619 111 83 125 98 128 127 3 31 9 36 95 76
51 23 153 63 228 88 247 83 768 203 801 186 11 -6 18 -24 20 -52 l3 -43 139
43 c77 24 141 45 142 46 1 1 20 301 43 667 22 366 43 692 45 725 l4 59 -92 91
c-297 292 -509 672 -629 1130 l-24 89 -54 17 c-117 35 -203 99 -269 201 -52
80 -74 166 -68 270 10 176 109 304 270 348 63 17 63 17 66 56 1 21 12 107 23
189 51 364 178 738 354 1040 57 98 157 249 185 279 5 5 27 -7 51 -27 78 -68
159 -81 374 -63 194 17 270 -30 340 -208 63 -164 103 -192 259 -183 148 8 346
66 733 216 100 38 209 75 242 82 201 39 420 -110 421 -286 0 -27 -9 -117 -20
-199 -11 -81 -20 -152 -20 -158 0 -5 -5 -6 -10 -3 -6 4 -50 13 -98 21 -272 45
-680 17 -762 -53 -61 -51 -59 -150 5 -198 41 -32 76 -34 175 -12 143 31 258
40 415 32 83 -5 176 -8 208 -9 50 -1 58 -4 61 -21 21 -116 31 -145 92 -262 78
-147 140 -219 217 -254 48 -22 65 -24 232 -24 196 0 213 -4 266 -62 76 -81
110 -247 89 -437 -18 -173 -33 -202 -131 -251 -88 -45 -220 -52 -289 -15 -31
17 -38 12 -45 -32 -14 -84 -85 -318 -136 -448 -120 -309 -280 -565 -492 -786
l-91 -96 90 -716 c59 -470 94 -716 101 -715 19 4 133 -16 256 -44 l118 -27 23
29 c30 38 50 37 282 -10 318 -64 611 -148 735 -211 49 -24 49 -24 29 -44 -38
-38 -36 -42 125 -183 283 -247 524 -525 564 -650 12 -34 10 -41 -12 -80 -36
-60 -126 -143 -328 -305 -271 -217 -365 -327 -389 -459 -24 -123 -3 -253 110
-682 38 -146 79 -322 91 -391 46 -271 5 -415 -216 -751 -181 -276 -247 -395
-308 -559 -86 -230 -88 -381 -8 -614 36 -105 38 -147 11 -201 -24 -46 -25 -78
-6 -95 53 -43 126 60 126 179 0 23 -14 84 -31 135 -76 226 -78 320 -11 526 41
128 125 285 276 519 314 484 340 623 211 1125 -24 94 -62 243 -85 330 -66 258
-83 395 -59 481 15 53 84 149 156 216 32 30 135 115 228 190 183 147 300 261
329 323 39 82 1 204 -109 350 -81 108 -232 270 -375 401 -77 71 -140 130 -140
132 0 2 35 -21 78 -52 251 -179 454 -295 517 -295 31 0 224 74 328 127 448
224 920 660 1082 998 51 105 95 249 121 390 14 79 18 151 19 345 0 275 -12
379 -71 608 -85 335 -208 548 -463 802 -159 158 -302 272 -694 552 -352 251
-442 329 -488 424 -28 57 -31 72 -32 161 0 54 6 141 14 193 23 157 18 570 -10
748 -42 272 -109 480 -208 644 -147 244 -318 390 -648 555 -82 41 -175 90
-206 109 -31 18 -124 62 -208 98 -246 104 -321 178 -421 411 -46 106 -73 149
-138 218 -146 153 -387 254 -747 314 -85 14 -166 18 -360 18 -243 0 -253 -1
-359 -28 -281 -74 -565 -226 -861 -464 -118 -94 -365 -336 -536 -522 -133
-146 -325 -322 -559 -514 -483 -394 -533 -441 -621 -574 -105 -161 -142 -313
-179 -743 -21 -250 -46 -410 -62 -410 -6 0 -98 36 -207 79 -175 71 -691 261
-828 305 -28 10 -80 35 -115 58 -423 273 -1015 494 -1778 663 -135 30 -283 60
-330 67 -94 14 -494 18 -628 5 -186 -17 -414 -77 -686 -181 -59 -23 -74 -25
-97 -16 -15 7 -33 9 -40 5 -11 -8 -391 -18 -639 -18 -189 0 -508 64 -868 173
-72 22 -139 40 -146 40 -8 0 -21 -9 -29 -21 -14 -20 -18 -20 -118 -9 -226 26
-557 -24 -859 -129 -263 -91 -737 -285 -1078 -442 -106 -49 -194 -89 -195 -89
-1 0 -3 84 -3 188 -2 267 -33 485 -115 806 -306 1196 -989 1953 -2003 2221
-71 19 -130 36 -132 37 -1 2 32 73 75 158 171 342 261 610 263 779 1 119 -12
149 -118 260 -227 239 -439 355 -695 380 -108 11 -116 11 -239 -1z"/>
<path d="M57114 28676 c-17 -8 -44 -30 -61 -51 -83 -100 -64 -285 37 -353 50
-34 127 -28 172 14 108 102 90 320 -32 382 -51 25 -72 27 -116 8z"/>
<path d="M59115 28683 c-112 -29 -168 -216 -102 -338 35 -65 80 -95 138 -95
87 0 158 82 167 195 12 145 -92 268 -203 238z"/>
<path d="M41996 28378 c-3 -13 -28 -149 -56 -303 -28 -154 -57 -307 -65 -340
-17 -72 -6 -97 53 -122 46 -19 199 -46 219 -39 27 11 3 25 -55 31 -92 11 -172
36 -187 59 -12 18 -12 29 0 76 12 47 106 556 117 629 4 31 -20 40 -26 9z"/>
<path d="M26245 28350 c-10 -15 -29 -383 -22 -412 8 -31 59 -93 89 -109 14 -8
23 -8 31 0 7 7 -2 24 -31 55 -23 25 -44 56 -48 71 -3 14 -1 96 5 183 15 206
14 222 -3 222 -8 0 -17 -4 -21 -10z"/>
<path d="M58451 28026 c-8 -10 -8 -33 0 -92 18 -122 18 -357 -1 -379 -27 -33
-82 -47 -197 -53 -122 -5 -152 -17 -120 -49 15 -15 29 -16 136 -5 134 12 199
34 227 77 24 36 30 205 14 361 -15 145 -28 177 -59 140z"/>
<path d="M44245 27657 c-16 -5 -31 -11 -33 -12 -2 -1 -20 -69 -42 -151 -243
-928 -812 -1623 -1517 -1853 -190 -62 -286 -76 -523 -75 -225 0 -314 13 -502
74 -714 233 -1303 973 -1533 1928 -17 72 -17 72 -51 72 -40 0 -40 7 -18 -155
70 -543 244 -1025 517 -1435 327 -493 756 -810 1252 -926 113 -27 134 -28 345
-29 195 0 238 3 325 22 350 78 649 241 924 508 477 461 786 1135 877 1909 8
71 14 130 12 131 -2 1 -16 -2 -33 -8z"/>
<path d="M8670 27423 c-108 -6 -286 -24 -321 -34 -104 -26 -141 -138 -73 -218
40 -48 74 -52 231 -29 195 29 544 31 653 4 41 -10 98 -21 126 -23 44 -4 55 -1
82 22 53 44 60 109 20 167 -33 48 -201 92 -408 108 -129 9 -185 10 -310 3z"/>
<path d="M26667 27285 c-192 -116 -402 -144 -593 -80 -43 14 -94 35 -112 46
-41 24 -65 25 -60 2 4 -23 66 -57 163 -90 70 -23 96 -27 215 -27 115 -1 146 2
210 22 120 38 270 120 270 148 0 23 -32 16 -93 -21z"/>
<path d="M6985 27230 c-270 -41 -477 -99 -642 -181 -152 -75 -192 -134 -148
-219 38 -73 107 -79 217 -21 132 71 332 123 600 156 67 8 140 15 161 15 85 0
147 57 147 135 0 52 -17 84 -59 112 -42 28 -104 29 -276 3z"/>
<path d="M8747 26809 c-56 -30 -90 -88 -95 -164 -5 -75 10 -125 51 -171 39
-45 76 -64 127 -64 50 0 89 19 123 59 36 43 50 94 45 167 -3 50 -10 72 -34
106 -57 81 -141 107 -217 67z"/>
<path d="M7963 26633 c-4 -9 17 -180 46 -379 65 -454 73 -423 -136 -534 -78
-42 -108 -63 -108 -76 0 -10 8 -20 17 -22 21 -4 222 101 261 137 40 36 67 93
67 140 0 40 -96 714 -105 739 -6 18 -35 15 -42 -5z"/>
<path d="M6815 26581 c-63 -39 -95 -100 -95 -183 0 -68 26 -123 78 -170 157
-141 352 71 248 271 -46 87 -158 128 -231 82z"/>
<path d="M16950 26384 c-14 -2 -65 -9 -115 -15 -440 -54 -1017 -255 -1340
-467 -228 -150 -438 -469 -580 -883 -135 -392 -217 -845 -290 -1599 -14 -146
-37 -373 -51 -505 -83 -792 -106 -1264 -85 -1749 7 -147 11 -270 9 -272 -2 -2
-32 30 -66 70 -70 83 -167 166 -262 223 -62 38 -282 119 -2678 991 -453 165
-482 177 -463 191 19 15 8 29 -289 347 l-309 332 -348 -100 c-191 -54 -748
-214 -1237 -354 l-888 -254 -833 0 -833 0 -278 -292 -277 -293 -426 -191
c-234 -105 -539 -243 -676 -306 -138 -64 -322 -146 -409 -183 -290 -122 -476
-221 -746 -401 -129 -85 -180 -127 -300 -246 -360 -354 -535 -651 -754 -1283
-37 -104 -91 -257 -121 -340 -68 -185 -71 -203 -86 -401 -61 -860 254 -3072
645 -4518 52 -194 53 -199 35 -217 -11 -11 -19 -23 -19 -27 0 -24 90 -333 152
-522 159 -484 323 -866 502 -1168 63 -106 166 -252 212 -302 22 -24 23 -36 34
-255 6 -126 22 -421 36 -655 45 -764 44 -871 -11 -1255 -29 -203 -32 -340 -9
-408 50 -146 252 -249 574 -291 534 -71 1510 -53 2635 49 385 35 601 45 1010
45 791 0 1800 -58 2305 -132 135 -19 158 -20 345 -9 346 20 820 74 1487 171
191 27 350 50 352 50 2 0 6 147 9 328 7 412 23 569 132 1242 149 919 210 1456
245 2130 5 113 13 241 16 285 3 44 9 490 14 990 9 922 15 1076 56 1435 106
930 366 1700 772 2290 106 155 208 277 352 421 211 212 411 362 650 488 104
54 290 135 296 129 7 -8 131 -383 169 -512 136 -466 179 -731 179 -1111 0
-266 -12 -392 -59 -617 -12 -62 -22 -114 -21 -115 1 -2 48 66 103 150 300 454
501 916 607 1397 51 229 69 361 102 768 4 39 10 62 18 62 8 0 31 128 73 405
44 283 69 419 84 455 28 65 120 152 185 174 33 11 83 16 160 16 l112 0 6 108
c17 298 37 903 29 915 -4 8 -46 43 -93 78 -327 245 -601 642 -751 1089 l-52
154 17 158 c31 300 104 630 207 941 80 243 72 230 167 256 136 37 231 44 383
31 122 -11 138 -11 168 4 95 50 94 204 -2 249 -64 31 -317 42 -454 21 -18 -3
-33 -1 -33 3 0 17 136 252 202 350 143 211 238 301 589 564 268 200 336 255
445 362 l91 88 48 -67 c123 -173 359 -379 553 -484 223 -121 254 -143 367
-255 118 -117 200 -228 283 -385 95 -181 183 -431 238 -680 15 -69 28 -126 29
-128 1 -1 37 14 79 34 71 34 82 36 145 32 149 -11 250 -112 287 -287 29 -137
13 -267 -47 -387 -78 -155 -230 -274 -351 -274 -33 0 -38 -3 -44 -27 -3 -16
-21 -87 -40 -160 -115 -449 -364 -871 -673 -1137 l-43 -38 11 -187 c6 -102 20
-350 32 -551 11 -201 22 -370 24 -377 3 -8 67 -13 227 -15 219 -3 224 -3 273
-30 66 -35 118 -91 148 -158 16 -35 48 -175 88 -376 l62 -321 41 3 c146 13
680 34 724 29 l52 -6 -4 38 c-3 21 -8 238 -11 483 -18 1433 -115 3579 -201
4440 -90 913 -231 1453 -454 1751 -182 243 -551 458 -885 514 -204 35 -496 18
-713 -40 -51 -14 -96 -25 -100 -25 -4 0 -20 25 -36 55 -70 135 -225 222 -451
255 -65 9 -329 12 -385 4z m-4720 -9846 c0 -20 -263 -1662 -267 -1667 -3 -4
-945 118 -950 123 -8 7 -161 1002 -155 1007 4 4 64 37 134 74 92 48 278 123
670 270 299 112 549 204 556 204 6 1 12 -5 12 -11z m-5842 -1001 c140 -52 255
-97 258 -100 3 -3 -14 -101 -20 -114 -1 -1 -156 -42 -346 -92 -190 -50 -353
-94 -362 -97 -12 -4 -19 2 -23 18 -6 26 -45 506 -45 554 l0 32 143 -53 c78
-29 256 -96 395 -148z"/>
<path d="M9923 25852 c-28 -3 -33 -7 -33 -30 0 -15 -9 -90 -20 -167 -76 -521
-255 -977 -520 -1330 -86 -114 -189 -227 -201 -219 -5 3 -9 31 -9 63 0 75 -21
194 -71 406 -74 312 -126 433 -224 523 -106 97 -244 126 -610 126 -271 0 -357
-11 -532 -69 -160 -54 -320 -142 -400 -222 -50 -50 -69 -128 -83 -330 -10
-140 0 -549 16 -660 4 -24 3 -43 0 -43 -22 0 -214 143 -340 254 -251 221 -536
627 -702 999 -36 82 -51 106 -63 102 -8 -3 -35 -9 -58 -12 -34 -4 -42 -9 -39
-22 3 -9 18 -63 35 -122 58 -200 138 -404 242 -612 364 -725 924 -1220 1527
-1347 128 -27 349 -37 478 -20 342 42 638 193 904 459 379 380 623 923 716
1596 15 110 32 608 23 660 -3 16 -11 19 -36 17z m-1528 -816 c124 -6 249 -27
294 -50 72 -38 121 -145 185 -410 58 -237 74 -323 82 -449 l7 -104 -54 -6
c-231 -28 -440 30 -514 141 -23 36 -60 196 -83 357 -5 37 -13 59 -20 58 -62
-13 -205 -33 -236 -33 l-39 0 9 -107 c15 -185 11 -301 -13 -354 -29 -64 -80
-111 -165 -153 -75 -37 -242 -81 -354 -92 l-61 -6 -6 83 c-28 361 -31 713 -7
839 10 55 49 90 170 153 109 57 206 92 317 113 87 16 290 32 348 27 17 -1 80
-4 140 -7z"/>
<path d="M25230 25460 c-6 -12 -8 -30 -5 -41 9 -28 646 -346 780 -389 429
-137 837 -132 1140 15 122 59 185 108 185 143 0 61 -39 67 -109 17 -106 -76
-278 -140 -441 -164 -118 -18 -370 -6 -510 23 -223 46 -303 77 -652 252 -180
90 -339 164 -353 164 -14 0 -29 -8 -35 -20z"/>
<path d="M32765 25465 c-5 -1 -43 -8 -83 -15 l-74 -12 -45 -97 c-25 -53 -56
-119 -69 -148 l-23 -51 60 23 c220 86 449 95 649 24 124 -44 150 -46 188 -15
63 54 61 147 -5 191 -43 30 -173 71 -278 90 -75 13 -290 20 -320 10z"/>
<path d="M34665 25455 c-5 -2 -44 -11 -85 -20 -106 -25 -223 -71 -250 -100
-49 -52 -28 -161 36 -185 39 -15 65 -12 133 15 92 38 213 64 328 71 l102 7
-101 108 c-100 108 -117 119 -163 104z"/>
<path d="M32767 24755 c-21 -15 -49 -48 -64 -78 -23 -44 -28 -65 -28 -132 0
-70 4 -87 29 -133 35 -63 72 -92 126 -99 55 -8 85 2 130 43 48 44 75 110 75
189 0 78 -25 141 -75 190 -35 34 -46 39 -97 43 -50 3 -63 0 -96 -23z"/>
<path d="M34785 24770 c-31 -13 -82 -71 -101 -115 -22 -53 -22 -167 0 -220 66
-156 244 -168 315 -21 60 123 20 300 -78 351 -32 16 -103 19 -136 5z"/>
<path d="M33672 24468 c-9 -9 -12 -87 -12 -305 0 -314 3 -337 53 -392 43 -47
139 -75 175 -52 8 4 12 19 10 32 -2 19 -11 25 -41 30 -47 7 -86 35 -112 80
-18 31 -20 57 -25 324 -4 249 -7 290 -20 293 -9 1 -21 -3 -28 -10z"/>
<path d="M50865 24409 c-83 -11 -232 -50 -296 -77 -159 -69 -81 -247 82 -187
175 65 280 81 454 70 66 -4 132 -7 147 -7 43 2 87 30 105 67 14 28 14 38 3 65
-7 17 -26 38 -41 46 -61 31 -296 43 -454 23z"/>
<path d="M65030 24085 c-47 -6 -95 -18 -107 -25 -72 -46 -68 -166 8 -205 26
-14 48 -15 160 -6 153 13 326 1 469 -30 139 -31 173 -33 209 -14 90 46 92 183
4 228 -110 57 -517 85 -743 52z"/>
<path d="M50942 23933 c-117 -57 -125 -284 -12 -360 103 -70 222 22 223 172 1
146 -104 241 -211 188z"/>
<path d="M18140 23930 c-99 -14 -199 -40 -257 -66 -41 -20 -56 -34 -72 -68
-25 -51 -26 -64 -5 -116 19 -48 71 -83 122 -83 21 1 65 10 98 22 153 51 326
52 529 2 69 -18 130 -28 145 -24 95 23 141 134 87 214 -28 42 -94 70 -235 99
-116 23 -316 33 -412 20z"/>
<path d="M52469 23827 c-77 -51 -105 -194 -56 -288 87 -164 277 -87 277 113 0
150 -118 244 -221 175z"/>
<path d="M35845 23600 c-11 -18 4 -27 55 -33 60 -7 142 -49 177 -92 15 -16 40
-59 57 -95 25 -54 31 -80 34 -159 7 -160 -37 -290 -130 -377 -75 -71 -125 -89
-238 -89 -83 0 -101 3 -145 27 -55 28 -89 57 -121 102 -14 20 -26 27 -38 23
-9 -4 -16 -11 -16 -16 0 -23 105 -122 158 -148 51 -25 67 -28 162 -28 99 0
110 2 171 32 154 76 243 244 241 453 -2 190 -88 336 -232 391 -54 20 -125 25
-135 9z"/>
<path d="M65334 23581 c-51 -31 -77 -77 -82 -142 -5 -72 9 -117 53 -159 28
-28 44 -34 90 -38 47 -4 61 -1 94 21 106 70 101 254 -9 316 -47 26 -105 27
-146 2z"/>
<path d="M31832 23574 c-71 -19 -106 -38 -159 -87 -158 -146 -202 -372 -108
-564 41 -82 98 -139 184 -180 79 -38 211 -44 293 -14 84 32 188 125 188 168 0
26 -35 12 -58 -22 -12 -19 -46 -50 -75 -69 -176 -117 -413 -45 -506 153 -23
50 -26 68 -26 172 0 113 1 117 37 191 21 41 56 94 79 117 50 53 149 101 205
101 42 0 72 20 59 40 -8 14 -49 12 -113 -6z"/>
<path d="M66974 23551 c-64 -39 -102 -120 -89 -190 18 -98 75 -151 162 -151
47 0 58 4 92 36 49 43 65 88 59 164 -9 124 -128 199 -224 141z"/>
<path d="M51670 23458 c-5 -13 -16 -105 -26 -205 -19 -205 -16 -226 40 -267
43 -32 72 -37 138 -25 62 12 89 32 70 51 -8 8 -27 8 -71 -1 -51 -10 -65 -10
-90 4 -54 27 -56 40 -36 246 10 103 15 194 12 203 -9 23 -26 20 -37 -6z"/>
<path d="M18230 23308 c-98 -66 -108 -241 -18 -325 122 -113 286 40 234 219
-21 75 -69 119 -133 125 -39 4 -55 0 -83 -19z"/>
<path d="M49824 23295 c-33 -50 20 -104 71 -71 27 18 34 63 13 84 -21 21 -66
14 -84 -13z"/>
<path d="M66120 22951 l0 -281 89 0 c66 0 90 4 94 14 9 24 -15 36 -75 36 l-58
0 -2 253 -3 252 -22 3 -23 3 0 -280z"/>
<path d="M53406 23204 c-21 -21 -20 -57 2 -77 24 -22 55 -21 75 1 34 37 11 92
-38 92 -13 0 -31 -7 -39 -16z"/>
<path d="M16459 23117 c-103 -68 -106 -268 -6 -339 44 -31 111 -31 155 0 60
44 90 135 72 218 -27 120 -135 179 -221 121z"/>
<path d="M34351 22941 c-47 -59 -168 -136 -264 -167 -73 -25 -98 -28 -222 -28
-118 -1 -155 3 -233 23 -68 18 -95 22 -103 14 -22 -22 -1 -40 73 -61 285 -84
567 -28 753 150 59 56 68 70 59 84 -18 30 -30 27 -63 -15z"/>
<path d="M17397 22854 c-4 -4 -7 -130 -7 -281 l0 -273 89 0 c91 0 113 9 91 35
-8 10 -32 15 -71 15 l-59 0 -2 252 c-3 219 -5 253 -18 256 -9 1 -19 0 -23 -4z"/>
<path d="M64384 22716 c-9 -24 4 -48 23 -44 12 2 18 12 18 28 0 29 -32 41 -41
16z"/>
<path d="M64510 22615 c-14 -17 -5 -51 16 -59 22 -8 54 11 54 32 0 38 -46 56
-70 27z"/>
<path d="M68050 22605 c-26 -32 13 -81 48 -59 34 22 22 74 -18 74 -10 0 -23
-7 -30 -15z"/>
<path d="M66660 22041 c-65 -69 -136 -111 -245 -148 -73 -25 -93 -27 -225 -27
-127 1 -156 4 -230 27 -76 23 -87 24 -100 11 -13 -14 -13 -17 7 -33 12 -10 53
-26 90 -35 282 -69 549 -14 722 149 51 49 71 74 69 89 -5 36 -31 26 -88 -33z"/>
<path d="M32582 21549 c-94 -238 -107 -344 -76 -582 21 -163 15 -320 -16 -402
-29 -77 -97 -146 -167 -169 -27 -9 -86 -21 -131 -26 -108 -12 -197 -39 -369
-112 -301 -127 -682 -337 -1198 -661 -230 -145 -655 -430 -782 -524 -93 -69
-435 -394 -1318 -1254 -742 -722 -1189 -1181 -1293 -1329 -163 -234 -267 -345
-447 -482 -55 -42 -111 -91 -124 -109 -14 -18 -72 -126 -129 -239 -126 -249
-191 -367 -337 -615 -176 -298 -250 -457 -333 -715 -112 -348 -162 -655 -162
-1000 0 -207 9 -304 41 -462 85 -424 377 -867 798 -1214 39 -32 70 -58 68 -59
-1 -1 -756 42 -1677 96 -921 54 -1676 97 -1677 95 -2 -1 4 -67 13 -147 8 -79
17 -198 19 -264 4 -110 10 -142 74 -382 221 -832 313 -1360 328 -1878 18 -642
-112 -1176 -395 -1620 -61 -97 -174 -245 -186 -245 -5 0 -68 28 -140 61 -230
108 -289 132 -281 112 24 -62 47 -194 42 -243 -9 -99 -131 -458 -204 -603 -54
-108 -94 -156 -187 -226 -141 -106 -330 -227 -444 -284 l-103 -51 -96 1 -95 2
6 -32 c4 -18 81 -441 171 -942 91 -500 167 -920 170 -932 l5 -23 1643 0 1643
0 473 2013 c261 1106 478 2019 482 2027 5 8 9 -897 9 -2012 l0 -2028 1894 0
1895 0 5 43 c3 23 44 508 91 1077 47 569 130 1579 185 2243 96 1160 100 1219
100 1492 0 157 3 285 6 285 3 0 73 -20 154 -45 81 -25 163 -45 181 -45 69 0
178 80 218 159 10 20 132 423 270 896 196 667 258 864 274 879 12 10 77 46
144 79 111 54 127 60 187 60 74 -1 143 -28 177 -71 31 -40 22 -107 -23 -174
-19 -29 -51 -101 -71 -161 l-36 -107 25 -17 c24 -15 27 -15 57 8 512 379 819
560 1071 634 122 35 177 38 301 20 232 -34 394 -84 485 -149 79 -57 103 -66
179 -66 148 0 258 44 409 165 70 56 101 75 124 75 50 0 256 -49 357 -86 51
-18 121 -49 154 -69 73 -44 111 -51 292 -59 309 -14 473 -45 621 -116 86 -41
124 -70 361 -271 201 -171 997 -801 1279 -1013 1 -1 36 -419 78 -931 42 -511
79 -951 82 -977 l6 -47 71 -29 c87 -36 211 -65 387 -92 73 -11 136 -20 141
-20 16 0 10 -29 -36 -164 -113 -338 -261 -593 -413 -707 -31 -24 -58 -44 -60
-45 -2 -1 203 -2504 213 -2591 l6 -53 1858 0 1858 0 7 37 c3 21 6 72 6 113 0
98 15 83 45 -45 13 -53 25 -98 27 -101 3 -2 2870 -7 6371 -11 l6367 -6 0 30
c0 89 -102 774 -161 1088 -126 660 -254 1067 -434 1381 -346 603 -798 1760
-1255 3212 l-51 162 -2622 0 -2622 0 -64 -207 c-92 -303 -218 -746 -306 -1078
-74 -282 -103 -396 -205 -825 -27 -113 -54 -223 -60 -245 -5 -22 -21 -98 -35
-170 -14 -71 -55 -272 -91 -445 -70 -342 -149 -763 -214 -1150 -23 -135 -44
-247 -46 -249 -5 -5 3 95 17 204 14 113 4 154 -46 182 l-40 22 -17 -32 c-9
-18 -17 -55 -18 -83 0 -65 -33 -162 -77 -226 l-34 -51 17 -65 c10 -43 15 -94
12 -149 l-3 -83 41 -28 c22 -15 52 -37 67 -48 l27 -22 -45 -308 c-24 -170 -44
-311 -45 -312 -1 -8 -143 76 -265 156 -190 124 -287 202 -330 267 -66 100
-144 293 -216 535 -56 187 -53 206 79 571 116 320 236 605 407 964 l66 140
-16 190 c-9 105 -20 193 -23 197 -4 3 -68 22 -142 42 -74 19 -146 44 -160 54
-50 38 -99 156 -120 290 -6 37 -13 78 -15 92 l-6 25 -312 -3 c-739 -9 -1414
50 -2151 188 -742 139 -1279 208 -1956 250 -268 17 -837 23 -1045 12 -177 -10
-191 -13 -208 -33 -10 -12 -16 -28 -13 -36 4 -10 -8 -13 -52 -13 l-57 0 -2
108 c-1 86 -8 133 -36 242 -64 247 -160 758 -222 1187 -41 278 -42 353 -20
878 33 740 30 1636 -6 2000 -50 512 -163 951 -379 1468 -50 120 -108 264 -129
320 -169 447 -420 1431 -512 2012 -20 127 -22 171 -20 485 3 458 -16 696 -79
1010 -106 528 -322 976 -624 1291 -35 36 -65 69 -67 75 -7 16 -130 104 -167
120 -19 8 -42 14 -52 14 -10 0 -96 39 -192 86 -536 267 -998 460 -1249 524
-44 11 -124 27 -178 34 -115 17 -143 29 -198 89 -72 78 -114 183 -149 372 -16
83 -19 148 -18 378 l0 277 -45 0 c-25 0 -595 27 -1266 60 -671 32 -1290 62
-1375 66 l-155 7 -13 -34z m-2698 -7246 c4 -43 45 -433 92 -867 46 -435 83
-794 81 -799 -3 -11 -668 321 -857 429 -279 158 -450 292 -450 350 1 118 150
256 605 562 146 98 255 181 358 272 81 71 151 130 156 130 4 0 11 -35 15 -77z"/>
<path d="M22328 20173 c-8 -10 -18 -34 -22 -53 -19 -103 -315 -1018 -455
-1408 -34 -95 -61 -180 -59 -189 5 -24 31 -37 61 -30 33 9 44 37 268 707 180
541 289 893 289 935 0 48 -52 72 -82 38z"/>
<path d="M61981 16551 c-16 -29 -30 -210 -41 -541 -12 -351 -20 -457 -60 -740
-72 -510 -142 -792 -311 -1255 -25 -70 -34 -111 -37 -183 -4 -88 -3 -96 27
-156 40 -83 116 -152 252 -233 130 -77 198 -138 287 -255 180 -238 309 -535
368 -845 14 -76 37 -187 50 -247 22 -103 26 -111 72 -160 73 -77 103 -136 109
-210 8 -98 -14 -156 -92 -246 -36 -41 -103 -129 -147 -195 -45 -66 -113 -160
-151 -210 -38 -51 -93 -142 -127 -210 -86 -176 -212 -482 -208 -507 4 -28 29
-42 60 -35 21 6 34 29 87 159 113 274 200 443 287 558 44 58 113 153 153 212
39 58 96 134 126 168 63 70 87 113 105 189 30 128 -10 265 -109 373 l-51 56
-49 244 c-54 265 -79 354 -147 515 -145 348 -332 590 -556 723 -252 149 -293
238 -212 465 126 355 162 478 218 730 56 255 111 610 135 872 6 59 15 248 21
418 6 171 15 358 21 417 12 124 5 148 -41 148 -18 0 -33 -7 -39 -19z"/>
<path d="M54561 14400 c-18 -294 -50 -707 -67 -870 -16 -163 -111 -746 -125
-772 -5 -10 -18 -18 -28 -18 -16 0 -22 -14 -36 -77 -120 -562 -289 -1064 -481
-1432 -74 -142 -78 -127 44 -188 l73 -37 52 26 c151 74 408 331 510 509 12 21
29 39 38 39 26 0 332 -97 486 -155 92 -35 158 -66 176 -83 l28 -26 57 32 c31
18 110 60 175 93 82 42 115 63 110 72 -5 6 -48 73 -97 147 -287 434 -539 959
-685 1425 -119 382 -159 642 -201 1310 -6 99 -13 184 -14 190 -1 5 -8 -78 -15
-185z"/>
<path d="M70588 14283 c-16 -19 -34 -66 -268 -698 -325 -878 -552 -1540 -633
-1850 -65 -247 -86 -294 -203 -471 -41 -61 -85 -137 -99 -169 -59 -133 -88
-342 -66 -470 26 -149 83 -227 313 -428 146 -127 232 -222 322 -355 32 -48 64
-90 71 -95 8 -4 25 -3 39 3 49 18 28 81 -72 215 -82 109 -173 204 -312 324
-165 144 -194 177 -233 259 -41 88 -47 206 -19 345 25 117 58 193 142 318 112
165 156 274 230 559 74 286 339 1046 726 2081 79 213 144 395 144 406 0 42
-54 59 -82 26z"/>
<path d="M15186 10354 c-22 -22 -20 -50 6 -68 20 -14 183 -16 1545 -16 l1523
0 16 25 c15 23 15 27 0 50 l-16 25 -1530 0 c-1376 0 -1530 -2 -1544 -16z"/>
<path d="M59493 9198 c-11 -13 -53 -79 -94 -148 -113 -192 -235 -370 -456
-666 -111 -148 -224 -307 -252 -353 -102 -169 -161 -390 -115 -435 21 -21 57
-20 76 2 8 9 18 45 22 80 8 85 44 184 101 283 27 44 142 208 258 362 293 394
547 784 547 842 0 23 -32 55 -55 55 -7 0 -21 -10 -32 -22z"/>
<path d="M7181 7981 c-15 -10 -18 -58 -5 -71 5 -4 137 -47 294 -95 543 -166
1038 -334 1203 -410 36 -17 62 -36 67 -50 9 -24 35 -268 45 -420 3 -49 8 -117
10 -150 2 -33 7 -118 10 -190 3 -71 8 -161 10 -200 3 -38 7 -146 10 -240 3
-93 8 -206 10 -250 2 -44 7 -195 11 -335 4 -140 8 -271 9 -290 2 -19 3 -81 4
-137 1 -78 5 -105 17 -117 20 -21 48 -20 69 0 15 15 16 38 11 203 -21 629 -26
785 -31 891 -2 52 -7 160 -10 240 -3 80 -7 177 -10 215 -3 39 -7 122 -10 185
-15 288 -43 558 -68 643 -9 35 -19 43 -87 77 -151 76 -611 236 -1209 420 -295
90 -324 97 -350 81z"/>
<path d="M21729 7477 c-46 -31 -55 -76 -41 -188 15 -109 15 -327 1 -383 -21
-84 -107 -155 -186 -156 -38 0 -40 -8 -23 -88 l11 -48 75 -22 75 -22 72 65
c40 37 100 85 134 107 l61 41 0 106 c0 66 6 124 16 154 l15 49 -36 49 c-47 65
-83 169 -83 241 0 57 -24 118 -46 118 -6 0 -26 -10 -45 -23z"/>
<path d="M21550 6300 c0 -5 10 -10 23 -10 18 0 19 2 7 10 -19 13 -30 13 -30 0z"/>
<path d="M20950 4083 c0 -17 14 -18 182 -16 212 3 311 11 303 24 -4 5 -111 9
-246 9 -221 0 -239 -1 -239 -17z"/>
</g>
</svg>
