<?xml version="1.0" standalone="no"?>
<!DOCTYPE svg PUBLIC "-//W3C//DTD SVG 20010904//EN"
 "http://www.w3.org/TR/2001/REC-SVG-20010904/DTD/svg10.dtd">
<svg version="1.0" xmlns="http://www.w3.org/2000/svg"
 width="350.000000pt" height="350.000000pt" viewBox="0 0 350.000000 350.000000"
 preserveAspectRatio="xMidYMid meet">
<metadata>
Created by potrace 1.14, written by Peter Selinger 2001-2017
</metadata>
<g transform="translate(0.000000,350.000000) scale(0.100000,-0.100000)"
fill="#000000" stroke="none">
<path d="M1565 3489 c-116 -16 -144 -21 -225 -40 -466 -109 -871 -417 -1118
-851 -105 -186 -186 -438 -209 -648 -9 -85 -9 -317 1 -400 19 -176 79 -383
160 -555 36 -76 165 -289 185 -305 3 -3 24 -27 46 -55 98 -122 221 -233 369
-333 229 -155 480 -250 762 -287 130 -17 381 -12 499 10 50 9 103 19 118 21
64 12 249 79 353 128 353 169 633 444 809 796 45 91 112 260 121 308 3 12 13
59 24 105 27 115 34 190 34 362 1 190 -8 270 -46 425 -124 510 -477 937 -962
1166 -114 53 -262 104 -355 121 -14 2 -27 6 -31 8 -3 2 -33 7 -65 10 -33 4
-64 10 -69 13 -14 8 -344 9 -401 1z"/>
</g>
</svg>
