<svg xmlns="http://www.w3.org/2000/svg" width="400" viewBox="0 0 2364.65 1480.04"><defs><style>.cls-1{fill:#fcecdb}.cls-3{fill:#e9f3fe}.cls-4{fill:#86d1cd}.cls-10{fill:#2b478b}.cls-11{fill:#e58638}.cls-12{fill:#a8d29f}.cls-16{fill:#233862}.cls-18{fill:#6bb7bf}.cls-21{fill:#bbd5fc}.cls-22{fill:#d2e4fd}.cls-23{fill:#c65548}.cls-28{fill:#feb27f}.cls-36{fill:#d69f9e}.cls-41{fill:#d38f8b}.cls-44{fill:#d59997}.cls-45{fill:#d18580}</style></defs><g id="Camada_2" data-name="Camada 2"><g id="Camada_1-2" data-name="Camada 1"><path class="cls-1" d="M1675.32 528.54c.3 3.45 2.17 6.3 3.82 9.14 15.27 26.22 27 54.2 40.46 81.3 7 14 13.19 28.36 20.31 42.28 18 35.24 36.77 70.26 62.61 100.4 28 32.59 60.3 59.81 101.73 74.82a306.74 306.74 0 0 0 62.6 15.28c10.39 1.43 21.07 2.16 31.67 2.79a370.64 370.64 0 0 1 62.71 9.62c30.17 7.09 59.5 16.79 87.11 30.78a356.32 356.32 0 0 1 78.81 53.64 327.3 327.3 0 0 1 56.13 66.78c19.92 31.12 32.73 65.22 39.95 101.39a318.53 318.53 0 0 1 6 53.22c1 33.71-4.13 66.75-12.59 99.29-5.7 21.92-14 42.87-23.41 63.49a299.16 299.16 0 0 1-32.77 55.64c-28.1 37.54-64 64.21-108.77 78.69a51.68 51.68 0 0 0-12.08 5.12h9.13q101.48 0 203 .06c3.87 0 8-1.3 11.58 1.51-2.54 3.4-6.3 3.39-10 3.39-73.27 0-146.53.23-219.8-.11a22.59 22.59 0 0 1-3-.37c-13.14-3.27-26.52-1-39.78-1.65-4.32-.2-8.66.17-13-.47-16.81-8.51-34.72-11-53.35-9.79a32.15 32.15 0 0 1-10.89-1.27c-3-.87-7.46-.48-8.07-4.52-.56-3.6 2.88-5.76 5.53-7.76 14.89-11.26 30.35-21.73 46-31.94a78.92 78.92 0 0 0 20.51-18.84c8.57-11.54 5.58-20.8-7.79-25.52-10.86-3.84-20.36-1.42-28.6 6.31-13.12 12.33-22 27.55-28.94 43.93-3.66 8.58-7.12 17.25-10.19 26.07-2 5.89-5.07 10.35-12.45 7.83s-5.64-8-3.81-13.13c10.84-30.13 22-60.1 40.85-86.49 6.19-8.66 12.53-17.33 16.61-27.29 3.08-7.54 6.17-15.74-.52-22.49s-16-7.89-25.17-5.44c-6.68 1.77-11.56 6.17-15.62 11.8-13.66 18.92-18.65 41.07-23.85 63.14-4.9 20.8-6.66 42.08-9.55 63.19-1.53 11.24-2.25 11.41-13.51 10.34-5.92-.56-11.77-2.44-17.74.06-7.3 3-13.89 6.64-15.53 15.39-.44 2.31-1.32 4.51-3.68 5.67-3.51 1.47-7.2 1.16-10.84 1.16q-42.37.06-84.75 0c-5 0-10.37.32-14.09-3.63-15.89-16.86-37.07-19.4-58.28-22.16a265.88 265.88 0 0 0-38.77-2c-4 .06-8 .18-11.53-2.25-3.16-4 0-6.73 1.93-9.7 6.47-9.81 6.33-13.65-.49-23.49-2.8-4-7.09-7.21-7.71-12.61.39-20.15-3.9-39.76-7-59.46-8-50.38-16.63-100.65-35.37-148.5a105.67 105.67 0 0 0-10.74-20.26c-27.76-41.59-43-87.54-48-137.15-1.81-18.21-3.62-36.42-5.08-54.66.42-3.87 3.33-7 3.13-11.07 1-14.09-2.7-27.94-2.07-42 .42-15.32 0-30.64.25-46 .07-3.53-.73-8.33 3.44-9.51 4-1.13 6 3.31 8.39 6 8.92 9.87 12 21.2 12.24 34.68.48 27.33-3.22 54.51-2 81.79.09 4.6-3.16 7.78-4.87 11.64-2.75 6.19-10 13.32 1.83 18.44 1.82.78 1.59 3.49 1.37 5.48-.4 3.61-1.48 7.12-1.9 12 14.21-9.63 20-23.55 24.8-38.1 4.43-9.8 6.11-20.37 8.52-30.7 2.8-12 4.88-24.13 7.85-36.06 5.16-20.65 6-40.94 1-62-9.87-41.41-19.66-82.75-32.86-123.3-10.53-32.35-29-57.18-59.67-72.5a21.52 21.52 0 0 1-6.44-4.64c-4.74-6.08-7.82-13-10.61-20.14-3.51-9-3.42-17.44 2.21-25.52 15.63-16.56 18.45-37.32 20.06-58.8.76-10.1-5-13.37-12.35-16.88-6.32-3-15-.29-19.33-7.91.45-7-.74-14 1.68-20.82 4.7-4.79 8.58-.63 12.39 1.4 11.16 5.94 22.13 12.31 34.43 15.67 11.81 3.23 15.06-.38 13.11-12.59-3.49-21.91-16.72-37.14-33.06-50.48-6.18-5-12.55-9.9-18.21-15.52-3.31-3.29-6.71-7.63-3.87-12.37 3.17-5.3 8.32-2.68 12.51-.89 15.73 6.69 28.79 16.35 36.23 32.48 3.89 8.44 7.89 16.87 13 24.68 18.13 27.45 33.93 33.31 65.31 24.19 3.8-1.11 7.46-3.56 11.55-1.22ZM1.36 1473.78c3.21-2.68 7-1.51 10.59-1.52q82.47-.1 164.94 0h9.94c.47-2.18-1.19-2-2.2-2.39-31.08-11.6-55.3-32.1-76.49-57.16-14.74-17.44-26.56-36.66-36.6-56.8A400.88 400.88 0 0 1 45 1287.19c-6.77-23.64-11.41-47.67-15.17-71.85-1.46-9.38-1.75-19.18-2.88-28.64-2.78-23.28-1.53-46.53-1.4-69.77.1-18.5 2.82-36.89 5.33-55.27a481.92 481.92 0 0 1 12.5-61.26c11.76-43.22 29-84.12 53-122 16.78-26.46 36-51 58.63-72.66 15.83-15.11 33-28.71 50.68-41.66a728.55 728.55 0 0 1 122.69-72.22c30.72-14.36 62.12-27.29 92.09-43.25 19-10.11 36.13-22.65 47.93-41.06 6.62-10.33 12.19-21.34 18.27-32a492.74 492.74 0 0 1 41.87-61.73c12.37-15.65 25-31.07 39.38-44.85a474.78 474.78 0 0 1 41.59-35.52c1-.75 2.47-.83 3.72-1.23 4.78 6.65 4.21 14.66 4.64 22.05a917.77 917.77 0 0 0 23.32 160.66c9.46 39.5 11.08 79.62 1.61 119.63-2.77 11.73-7.52 22.7-12.69 33.54-3.76 7.9-3.07 9.09 5.8 9.15 26.95.17 53.9 0 80.84.1 4.94 0 10-.68 14.59 2.14 3.6 4.61 3 9.73 1.8 14.91-1.17 3.17-4.11 4.11-6.82 5.34-28.55 13-50.71 34.25-70.56 57.54-21.55 25.28-19.2 68.25 3.06 97.49a181.38 181.38 0 0 0 44.84 42.11c3.56 2.35 7.59 4.29 9.36 8.66.63 25.71-6 50-14.43 73.94-4.64 13.23-11.36 25.56-17.83 37.94-17.15 32.81-26.69 67.3-24.77 104.62.37 7.26.93 14.65-.87 21.89-7.51 7.3-24.29 7.69-33.25.82-2.49-11.74-1-23.82-3.16-35.69-3-16.51-6.65-32.61-14.72-47.49-12.3-22.67-22.06-46.22-26.33-71.92-2.21-13.28-.84-23.77 11.9-31.78 14.53-9.14 25.69-22 34-37.25 11.55-21.33 8.9-53.05-11-70.7-13.21-11.72-25.24-24.7-41-33.21-2.79-1.51-6-4.69-9-2.21-2.42 2-.46 5.68-.05 8.56 2.84 19.78 6.05 39.51 5.47 59.61-.13 4.33-.14 8.67-1.29 12.89-1.31 4.84-2.29 10.57-8.42 11s-8.15-4.9-9.79-9.69a89.88 89.88 0 0 1-3.91-18.52c-2.64-21.24-2.43-42.58-1.75-63.85.35-11-3.42-17.29-13.56-21.36C501.47 882 474.12 869.49 444.4 864c-5-.93-11.7-4.73-14.79-.34-2.55 3.64 3.11 8.79 5.39 13.13 9.88 18.88 20.75 37.3 27.46 57.66 1.68 5.08 5.79 11.55-.81 15.29-5.71 3.25-10.87-1.62-14.82-5.51-17.9-17.59-32.52-37.87-46.92-58.3-5.37-7.63-10.94-15.11-16.05-22.92-2.63-4-5.82-7.25-11-7.81-18.62-2-37.1-2-55.5 2.26-24.47 5.67-39.48 20.16-42.28 45.52-1.71 15.52-3.2 31.24 2.49 46.44 6.35 17 15.8 22.94 33.68 24.36 20.9 1.66 41.91 1.7 62.71 4.5 3.3.45 6.59 1 9.85 1.71 4.67 1 9.72 2.42 10.34 7.91.6 5.33-3.86 8.19-8 10.47a76.61 76.61 0 0 1-15.75 6.29c-20.54 5.92-41.21 10.68-63.52 5.63.5 5.79 3.17 9.66 5.34 13.56 7.46 13.39 15.47 26.43 25 38.52 20.93 26.55 46.18 33 77.1 19.22 9.12-4.07 18.21-8.32 26.38-14.18 18.36-13.17 38.79-16.81 60.79-13.47a25.75 25.75 0 0 1 3.91.77c4.84 1.56 10.4 3.17 10.44 9.16 0 5.69-5.65 6.92-10 8.27-10.56 3.3-21.61 3.79-32.53 4.83-25.06 2.39-47.28 10.4-64.27 30.2-8.55 10-8 16.15 4.4 19.51 41.68 11.32 83 10 123.58-5.47a52.54 52.54 0 0 0 19.55-13.56c5.7-6.07 10-6.31 14.67.67 20.06 29.81 37.42 60.94 38.52 98.12.32 10.6 2.59 21.22.37 31.87-.68 3.22-.36 6.74-3.35 9.1-4.36 2.28-9.1 1.73-13.73 1.73-30.32.06-60.63 0-91 .07-3.93 0-8-.77-12.55 1.47 4.23 5.25 4.51 11.52 5.2 17.76 2.8 25.39 9.23 49.74 21.06 72.52 1.83 3.54 3.68 7.15 3.14 11.37-.87 4.07-4.14 5.88-7.4 7.56-10 5.21-20.3 10.05-30.33 15.31-7.34 3.85-11.89 1.64-15.06-5.49q-10.79-24.18-23.53-47.4C430 1299.09 415.93 1277 398.56 1257c-6.61-7.59-14.37-13.94-23.68-18-9.56-4.15-21.31-2.45-27.11 3.82-6.93 7.51-5.45 16-2 24.33 6.73 16.27 17.61 29.77 29.6 42.34a725.32 725.32 0 0 0 72.73 66.9c10.45 8.33 9.92 9.92-1.65 16.2-9 4.91-16.6 4.23-24.77-2.24-22.78-18-47.09-33.8-73.61-45.88-14.66-6.67-29.73-11.91-46.25-10-3.84.46-8.81.07-10.11 4.8-1.41 5.14 3.19 7.63 6.54 10.17 11 8.39 24.08 12.8 36.65 18.06 24.3 10.16 49.51 17.81 74.42 26.29 3.57 1.21 9.51 1 9.6 5.55.11 5.6-6 6.21-10.35 7.66-18.1 6.05-37.3 7-55.67 11.7-24.12 6.23-47.07 14.76-64.86 33.35-3.48 3.63-7.08 7.25-9.2 11.76-4.15 8.86-11.05 11.27-20.32 11-17-.47-34-.06-51-.17a60.76 60.76 0 0 0-17.8 2.07c-59.5.82-119 .21-178.46.34-3.61.13-7.36.12-9.9-3.27Z"/><path d="M1551.27 352.16c-2.8 8-3.23 16-.22 24 2.76 6.1 1.39 12.43.49 18.55-2.67 18.06-6.59 35.84-14.87 52.32a12 12 0 0 0-1.1 6.71c1.6 18.52.48 37.07.61 55.61 0 4 1 8.85-4.12 11.22-4.47-3.3-3.83-8.26-3.91-12.81q-.36-21.48 0-43c.13-8.06-3.1-11.76-11.2-11.29-3 .17-6 0-9 0H782.33c-19.73 0-19.74 0-19.74 19.73q0 489.24-.08 978.49c0 6.84 1.66 14.07-2.83 20.35-4.95.15-4.65-3.91-5.19-6.9-.77-4.27-.44-8.64-.44-13v-988.4a90.17 90.17 0 0 1 .32-12c4.72-42.48 1.18-84.33-9.72-125.62-.76-2.89-1.48-5.88.7-8.59 4.52-2.53 9.17-1 13.67-.18q109.76 19.26 220.76 29.1c35.43 3.16 71 5 106.53 7 52.94 2.88 105.85 1.65 158.76 1.31 38.86-.25 77.74-2.82 116.59-5.06 40.19-2.33 80.32-5.32 120.44-8.57 20.56-1.66 41-4.73 61.57-6.07 9.61 2.57 5.99 11 7.6 17.1Z" style="fill:#d8e8fd"/><path class="cls-3" d="M1545.59 335.77c-6.76 4.09-14.57 3.11-21.89 4.39-10.75 1.88-21.74 1.62-32.51 3.64-7.8 1.45-15.89 1.4-23.74 1.86-11.91.7-23.87 1.73-35.67 2.95-14.5 1.5-29.22 0-43.53 3.42a6.64 6.64 0 0 1-2 .15c-17.66-1.29-35.17 1.55-52.72 2.43-19.26 1-38.63.08-57.72 2-28 2.78-55.86 1.05-83.77 1.56-25.65.46-51.32.21-77 0-17.6-.11-35.15-1.71-52.73-2.38-18.81-.72-37.72-1.92-56.46-3.86-17.75-1.85-35.6-2.53-53.32-5.13-8.74-1.28-17.77-1.89-26.67-2.7-14.47-1.31-28.88-3.34-43.31-5.16-11.8-1.49-23.6-3-35.39-4.73-19.63-2.81-39.27-5.62-58.86-8.67-14.37-2.24-28.67-4.87-43-7.32-3.73-1.23-4.29-4.81-5.63-7.74-10.74-23.44-23.05-45.67-45.48-60.31-1.93-1.26-3.65-3-3.14-5.74 4.67-.06 9.33-.19 14-.19q231 0 461.91-.09c4.13 0 8.73 1.71 12.35-2 2.76-1.57 5.78-1.24 8.75-1.21 28.17.25 56.35-.05 84.52.12 7.94.48 15.88-.19 23.82.09 40.88.37 81.78-.27 122.66.25 28 .35 54.71 6.4 78.67 21.91a124.32 124.32 0 0 1 33.63 32.23c1.95 2.71 3.89 5.43 4 9 4 11.64 4 11.41 15.63 11.74 6.13.18 12.48-1.65 18.37 1.52-3.5 4.29-8.44 3-12.86 3-6.57 0-12.43 0-9.39 9.46a5.39 5.39 0 0 1-1.52 5.51Z"/><path class="cls-4" d="M1273.32 244.22q-42.25.08-84.51.18c-3.37 0-6.62-.14-9.47-2.2-4.9-9.8-10.53-19.24-12.57-30.29-5-26.82.5-50.51 18.82-71.42 15.24-17.41 32.07-32.72 51.38-45.4 5.88-3.86 12.25-6.76 18.57-9.69 4.21-2 6.12-.7 5.43 3.47-2 12.12-3.3 24.31-4.46 36.52-2.22 23.46-5.22 46.9-1.12 70.44.86 4.91 2 9.74 5.77 13.52 3.13 3.12 5.82 2.69 8.44-.36 3.15-3.66 4.54-8.3 5.3-12.79 1.81-10.78 3.65-21.65 4.07-32.54.67-17 1.07-34-.11-50.95-.88-12.61-1-25.22-2-37.79-.29-3.61.13-5.45 3.41-7 41.59-20.27 83.46-39.84 128.61-51.12a115.75 115.75 0 0 1 15.72-2.57 102 102 0 0 1 10.93-.08c1.07 4.18-1.44 6.79-2.85 9.58-11.72 23.17-23.86 46.13-34.17 70a198.74 198.74 0 0 0-10.43 31.17c-.73 3-1.37 6.13 1.55 8.24 3.13 2.25 5.57-.16 8.09-1.75 7.15-4.5 12.78-10.74 18.09-17.08 26.12-31.18 48.3-65.19 70-99.49 4.13-6.54 8.37-11 16.6-12.06 28.58-3.59 57-4.72 84.94 3.79 20.77 6.33 37 18.4 44.55 39.54 3.11 8.7 5.71 17.89 6.52 27 1.9 21.18 3.23 42.28-6.47 62.65-8.65 18.16-22.07 27.16-41.93 28.44-24.49 1.59-48.94 3.86-73.36 6.33-10.53 1.07-21.14 2.56-31.08 6.59-7 2.84-7.47 5.67-1.47 10.52 7.92 6.4 17.64 9.38 27.17 12.1 19.54 5.56 39.5 8.78 60 8.42 7.7-.14 15.14-1.72 22.64-3.05 2.26-.4 4.48-1.44 7.75.87-16.38 36.58-33.06 73-66.23 98.61-2.23-1.07-3.24-3.19-4.58-5.11-18.92-27.19-44.81-44-77-51.13a159.46 159.46 0 0 0-34.52-4q-61 0-121.93-.16c-1-5.33 3.29-7.66 6.28-10.44 35.55-32.92 75.43-59.88 117.34-83.88 48.15-27.59 97.67-52.47 149.31-72.92.55-1 2-.54 2.59-1.56-1.24.37-2.14 1.36-3.35 1.81-68.37 28.66-136.63 57.55-200.32 95.91-31.38 18.9-62 38.88-87.67 65.49-2.47 2.49-5.59 3.77-8.27 5.64Z"/><path d="M691.08 244.44c4.51 5.45 11.26 7.92 16.38 12.7 16.91 15.79 27.22 35.61 35.93 56.52q1 2.29 1.94 4.57c12.83 43.2 17.15 87.18 12 132-3.84 3.46-8.65 3.23-13.26 3.2-6.86 0-9.53 3.39-9.42 9.89.06 3.65-.06 7.32-.06 11q0 144.32-.06 288.63c0 5.84 1.34 12.1-3.14 17.2H621.94c1.26-9.07 6.82-15.18 9.82-22.34 8.17-19.52 13.12-39.63 13.63-60.8.12-4.66-.15-9.33.05-14 1.25-28.83-3.8-56.85-11-84.55C629 577.6 626.23 556.27 623 535c-3-20-5.27-40.06-7.08-60.12-1.27-14.15-2.45-28.42-2.65-42.7.06-11.3.09-22.59.17-33.89.22-30.58 4-60.72 12.36-90.15 4.65-16.41 12.13-31.61 23.48-44.54 11-12.6 24.49-20.17 41.8-19.16Z" style="fill:#afcdfb"/><path d="M1533 520.12c.08-20.95.22-41.91.19-62.86a38.24 38.24 0 0 1 2.63-14.52c7.6-19.22 12.73-39.07 13.83-59.83a43.12 43.12 0 0 1 1.45-6.74c13.38-15 23.44-32.25 34-49.13 5.32-8.48 5.18-8.61 15.51-7.1 28.3 4.15 56.36 9.28 83.07 20 4 1.61 8 3.17 11.17 7.1-1.7 3.59-5.55 4.22-8.56 5.82-15.85 8.44-31.65 17-46.48 27.16a48.83 48.83 0 0 0-10.56 9.08c-2.43 3-1.64 4.95 2.15 5.29a38.31 38.31 0 0 0 12.83-1.31c23.61-5.94 46.1-15 68.44-24.45 16.82-7.11 16.63-7.17 32.74 2.33 13.63 8 25.82 17.54 34.91 30.67 8.43 12.18 9.53 25.34 4.66 39-5.67 15.9-13.58 30.41-28.24 40-11.46 7.5-22.8 8.93-35.27 1.34-15.31-9.33-31.25-17.64-47-26.23a90 90 0 0 0-11-4.56c-1.87-.71-4.07-1.29-5.51.58s-.59 3.92.32 5.66a94.86 94.86 0 0 0 22.12 28c9.77 8.47 19.85 16.6 33.7 21-12.37 10.29-25.69 16-38.72 22.15-11.67 3.82-23.24 7.57-35.84 7.61-11.45 0-20.55-4.29-28.69-11.77-12-11.06-19.93-24.88-26.09-39.72-7.28-17.55-20.88-27.88-37.87-34.64-3-1.21-6.69-3.21-8.9.37-1.78 2.88.89 5.85 3 7.8 5.53 5.26 11.29 10.32 17.26 15.07 4.69 3.75 8.89 8 13.51 11.8 14 11.46 19.68 27.25 23.32 44.05 3 13.66-1.87 18-15.56 14.21-12.92-3.59-24.68-9.86-36.27-16.44-3.16-1.8-6.4-3.49-9.6-5.23-.54-.18-.8-.47-.8-.87s-.03-.69.15-.69Z" style="fill:#599dad"/><path d="M1.36 1473.78h192.22a18.29 18.29 0 0 1 2.95-.46c94.21-2.91 188.46-2.66 282.69-2.2 84 .41 168 .14 251.95.24 16.19-1.17 32.36.32 48.54.29q309.49-.48 619-.23c5.65 0 11.34.5 16.94-.69a17.23 17.23 0 0 1 3.86-.22c29.36 1.29 58.73.74 88.1.18 11.88 1.62 23.79.36 35.68.41 32.43.13 64.86-.38 97.28.24 13.84-.25 27.69 0 41.54-.63 31.64.73 63.32-.91 94.9.54 45.56 2.1 91.19 3.57 136.66 1.6 47.95-2.07 95.84-1.51 143.72-.92 23.87.29 47.85.6 71.74 1.84q64.28.09 128.55.19 52.82 0 105.63-.14c2.76 3.08.95 5.23-1.94 5.81-3.53.7-7.29.37-11 .37H11.25c-2.66 0-5.44.33-7.94-.35-2.89-.81-4.7-2.8-1.95-5.87Z" style="fill:#274f90"/><path d="M1545.59 335.77c.33-5.75-2.86-10.76-3.78-16.89 9.31-1.81 18.51-.11 27.56-1.07 1.9.53 3.83 1 5.71 1.62.56.19 1 .84 1.88 1.66-8.1 10.72-18.09 19.93-25.68 31.07-4.98-4.39-2.14-11.5-5.69-16.39Z" style="fill:#5b9eae"/><path class="cls-3" d="M1419.07 1472a6.83 6.83 0 0 0-1.58.65c-3.6 1.06-7.29.54-10.93.55H770.09c-3.58 0-7.33 1-10.75-1V462.55c0-13.33-.52-12.24 12.69-12.24h746.74c13.22 0 12.56-.95 12.55 12.36 0 16-.06 32 0 48 0 3.22-1.06 6.73 1.6 9.54a2.29 2.29 0 0 1 .59 1.53l-.24 15.79c0 2.63.23 5.35-2.38 7.11-12.28 4.75-25.41 1.68-38 4.18-6.8 1.35-13.69 2-20.11 4.86-8 3.58-12.76 9.45-12.39 18.45.34 8.51 4.51 14.31 13.13 16.39A6.48 6.48 0 0 1 1476 590c4.58 9.92.09 20.41 1.92 30.52a35.85 35.85 0 0 1 .2 8c-.54 12.81 5.42 20.62 17.88 23.53 2.69 4.16 2 8.85 2.23 13.41-.57 4.73 1.45 9.2 1.45 13.87 0 3.87-1 7.25-4.43 9.48-23.3 14.42-39.79 34.36-48.57 60.44-1.48 4.41-2.57 8.91-6.1 12.26a323.32 323.32 0 0 1-31.4 28.84c-9.24 7.42-13.41 7.77-23.16 1.28-11-7.33-22.5-13.93-33.35-21.53-3.19-2.24-7-4-8-8.38 4.59-5.47 11.56-5.43 17.6-7.31 20.52-6.39 40.61-13.57 58.31-26.23 13.72-9.81 18.71-20.71 14.89-33.24-6.68-18.59-22.63-28.15-37.92-37.94-25.64-16.41-54.15-26.48-83-35.76-127.69-35.16-256-34.16-384.77-6.85a16.75 16.75 0 0 0-3.09 1c-2.85 1.15-6 1.28-8.84 2.52-7 1.45-13.43 4.47-20.3 6.18-1.4 1.43-3.42 1-5.06 1.61-2.4 1-5 1.48-7.09 3.11a12.14 12.14 0 0 1-3.74.54c-2 1.46-4.66 1.7-6.72 3.12-1.61 1.45-4.12.08-5.65 1.78-1.21 1.11-3 1-4.21 2.12a2.37 2.37 0 0 1-1.74.63l-.77-.07.79.28a6.25 6.25 0 0 0 2.55-1.36 13.41 13.41 0 0 0 4-2c1.83-.81 4.14-.06 5.69-1.76 1.84-1 4.08-.92 5.69-2.4a32.34 32.34 0 0 1 3.8-.48c2.58-1.77 5.54-2.62 8.44-3.64 2 .06 3.49-1 5-2.06 7.19-1 13.71-4.42 20.78-5.89 2.9-1 6-1.22 8.87-2.51a21 21 0 0 1 4.91-1c24.81-6.48 50.08-10.33 75.56-12.58a1218.68 1218.68 0 0 1 130.59-4.21c58 1.12 115.46 6.66 171.43 23 29.74 9.38 59.19 19.56 85.76 36.31 12.56 7.91 25.37 15.67 33.94 28.6 2.83 4.26 4.37 8.86 6.37 13.38 1.71 13.81-6.54 22.24-16.38 29.54-17.24 12.81-37.24 19.75-57.46 26-6.91 2.13-13.86 4.19-20.9 5.87-4.35.54-7.66-1.83-10.89-4.12-11.07-7.85-23.13-14.27-33.48-23.19-1.53-2.45-2.49-4.9.06-7.31 11-3.61 21.34 2.06 32.06 2.32 12 1.72 16.69-1.75 14.66-11.08-1.61-7.41-8-6.59-13.41-7.5-19.76-3.74-39.87-5-59.31-11.21-10.72-3.45-23-.29-34.33-3.07-4.48-1.1-10.22 0-12.3-6.06 3.85-4.39 9.13-3.49 14-3.52 24.3-.15 48.61.22 72.91-.25 6.86-.14 16.53 3.63 18.93-7.38 1.29-5.89-4.33-8.09-19.47-8.09H931.88c-14.38 0-19.67 2.21-18.39 8.05 2.27 10.37 11.39 7.43 18.06 7.44 90.23.23 180.45.13 270.68.18 5.63 0 11.35-.63 16.79 1.41a5.7 5.7 0 0 1 2.44 2.15c-6.84 8.36-17.13 6-25.41 9.14 7.44 3.37 14.3 9.43 22.82 12.61 15 3.29 30.48 3.72 45.28 8 6.79 5.76 9.28 14.59 15 21.11 2.51 7.05 7.91 12.24 11.8 18.39 2.35 3.71 6.3 7.71.68 12-21.73 5.3-44 6.86-66.12 9a1052.47 1052.47 0 0 1-141.58 3.92c-72.6-2.63-144.83-9.08-214.51-31.87-14.91-4.88-29.39-10.87-42.44-19.72-8.05-5.45-15.14-12-18.64-21.44-3.88-12.55 2.12-21.64 10.46-29.91 4.91-3.5 9.21-7.88 14.73-10.54 1.43-.94 3.06-1.53 4.55-2.36a18.34 18.34 0 0 0 5-3.38 15.89 15.89 0 0 0 4.21-2.13c1.55-.32 3.15-.48 4.39-1.63 1.05-.74 2.29-.64 3.47-.84 1.92-1.66 4.65-1.62 6.59-3.21 1.79-1.1 4.25-.11 5.82-1.87 1.69-1.35 4.19-.11 5.75-1.83a4.36 4.36 0 0 1 3-.93c-.13 0 .42-.13.42-.13l-.57.08a5.51 5.51 0 0 0-3.62 1.5c-1.81.86-4.12.06-5.66 1.76-1.7 1.31-4.2.1-5.76 1.84-1.67 1.24-4 .83-5.58 2.39-1.46.65-3.25.4-4.49 1.66a5.54 5.54 0 0 1-3.4.92c-2 1.34-4.44 1.73-6.12 3.54a45 45 0 0 1-4.23 2.39 44.44 44.44 0 0 0-4.44 2.43c-4.89 2.41-8.61 6.41-13 9.43-6 5.55-11.28 11.54-12.54 20 0 2.38-.05 4.76 0 7.14 0 2.15 1 4 1.78 5.91 7 12.74 18.09 21.07 30.45 27.9A222.87 222.87 0 0 0 892.36 761c52.08 13.37 105 20.87 158.59 24.68 37.29 2.64 74.57 2.22 111.77 1.28 40.23-1 80.14-7.13 119.72-14.69 4.25-.81 8.49-1.56 12.77-2.09 5.27.25 8 4.06 11 7.68 18.5 22.61 37.79 44.41 60.21 63.38 16.61 14.06 34 18.41 54.16 8.73 4.19-2 9-5.27 13.81-.77 2.35 4.32 2.15 9 1.73 13.61-3.62 40.36-.82 80.79-1.61 121.18a24.11 24.11 0 0 0 2.49 11.54c4.69 9.65 3.28 20.23 4.22 30.38q4.07 44.07 7.1 88.24c1.34 19.88 3.18 39.71 4.76 59.57 2.48 31.15 4.76 62.32 7.31 93.47 4.06 49.72 5.93 99.59 10.56 149.26a136 136 0 0 0 3.19 18.68c.26 9.32-6.6 13.92-12.93 18.48a52.91 52.91 0 0 1-19.8 8.67c-8.13 1.72-15.75 4.48-22.34 9.72Z"/><path d="M1435.66 996.93c-2.53-.65-4-2.11-4.05-4.89-.12-5-.54-10-.52-15 .12-33.63.35-67.25.48-100.88 0-7.31 2.3-14.45 1.5-21.81-.25-2.25.49-4.73-1.71-6.45-3.32-12.63.75-25.06 1.38-37.54.86-16.81 1.52-33.82 6.66-50.14a31.91 31.91 0 0 0 4.16-8.77c6.54-25.52 23.06-44.15 42.52-60.72 2.22-1.9 4.63-2.33 7.29-2.51 13.56-1.31 26.48-4.53 38.63-11.07 5.93-3.2 12.15-6.86 19.55-5.19a220.1 220.1 0 0 1 30.24 19.19c14.89 11.21 24.52 26 31.21 42.93 9.41 23.81 16.76 48.26 23.1 73 7.65 29.92 14.9 59.92 20.13 90.32 1 6-.34 11.27-1.23 16.64-4.73 28.46-11.49 56.51-18.12 84.58-.51 2.17-1 4.61-3.37 5.82-10.2 3.5-17.89-.44-24.27-8.22-2-3.63-2.14-7.51-2-11.59 1-25.57 2.37-51.12 2.44-76.73 0-9.4-1.48-17.68-8.17-24.7-3.33-3.49-5-8.45-10.1-12.54l-.52 55.47c-5.3-1.64-4-6.27-4.11-9.89-.23-14-.27-28 0-41.94.09-4.81-.75-9.12-3.6-13.17a711.09 711.09 0 0 1-40.07-63.2c-4-7.16-5.62-7.11-9.81 0-16.09 27.46-28.84 56.21-34.24 87.87a79.22 79.22 0 0 0 2.82 38.44c6.55 20.09 22.68 29.67 41.27 35.89a100.29 100.29 0 0 0 35.35 5.5c5.29-.18 10.8-.39 14.62 4.52 1 3.66-2.12 5.27-3.8 7.59-2.7 4.09-6.9 6-11.17 8-38.68 17.62-79.18 20.87-120.8 15.37-7.43-.11-15.04.3-21.69-4.18Z" style="fill:#ee9849"/><path class="cls-10" d="M1457.3 999c11.52.42 23 1.25 34.53 1.67 30.82 1.1 59.56-6.69 87.5-18.63l10-4.27c2.72 20.36 4.45 40.81 5.71 61.32 1.14 18.36 6.53 35.86 11.94 53.29 6.79 21.93 14.72 43.42 26.31 63.37a30.37 30.37 0 0 0 2.48 4.31c18.54 22.52 25.92 49.89 33.14 77.19 11.37 43 18.54 86.89 24.67 130.93 1 7.2 1.83 14.45 3.2 21.58.76 4-1.08 7.09-2.2 10.49-1.84 4.3-5.68 6.68-9.63 7.92-13.77 4.31-19.28 13.14-17.19 27.43.56 3.8 1.33 8.81-4 11a5.42 5.42 0 0 1-2.59-3.7c2.69-20.25-7-36.27-16.83-52.78-30.75-51.42-61.25-103-87.43-157a129.52 129.52 0 0 1-5.49-11.76 46.09 46.09 0 0 0-4.1-9.39c-28.86-59.2-54.26-119.93-79.91-180.54-3.11-7.34-6.57-14.55-9.21-22.09-1.1-3.27-3.32-6.62-.9-10.34Z"/><path class="cls-11" d="M1593.16 970.19c-6.05-2.44-12.41-1.84-18.71-2a102 102 0 0 1-55.39-16.88c-12.19-8-18.3-19.68-21.73-33.32-4.73-18.77-1-36.92 4.09-54.85 7.13-25.11 18.84-48.25 31.85-70.74 4-7 6.52-6.87 10.57 1a445.6 445.6 0 0 0 36.36 58.28c7 9.71 10.23 19.07 9.29 30.86-.9 11.26-.27 22.65-.14 34 0 3.23-1 6.73 1.56 9.56.6 14.72 3.34 29.31 2.25 44.09Z"/><path class="cls-12" d="M1919.1 1472.11c.56-14.13 14.37-25.93 28.23-23.31 5.6 1.06 11.21 1.07 17.49 2.2 1.48-11.91 3-23.65 4.41-35.41 3.36-27.79 9.17-55 19.21-81.2 3.23-8.44 8.21-16 13.61-23.2 8.78-11.66 28.69-14.47 40.67-6 5.82 4.1 8.18 11.3 5.94 19.72-2 7.44-5.51 14.23-9.63 20.74-10.13 16-21.77 31.07-29.78 48.43-8.37 18.16-15.28 36.86-22 55.63-.92 2.57-3 5.42 1.93 7 6.06 1.87 7.35 1.89 9.4-3.28 3.79-9.58 7-19.4 11.08-28.85 7.15-16.59 16-32.11 29.13-44.93 11.82-11.59 26.56-11.73 40.25-3.46 6.54 4 8.23 11.29 4.7 19.35-4.45 10.13-12.54 17.1-21.3 23.26-17.13 12.06-34.44 23.86-51.67 35.79-1.6 1.1-3.54 1.94-4 4.86 6.56 1.55 13.1 2.89 20 2.81 10.62-.14 21.33-.89 31.74 2.19 6.07 1.8 12.16 3.52 17.2 7.64-1.66 1.53-3.72 1.17-5.68 1.17h-145.22c-1.95-.07-4.01.27-5.71-1.15Z"/><path d="M1475.35 590c-12.23 1-14.34-4.65-17.09-12.61-3-8.65.15-18.3 7-23 7.53-5.16 16.15-7.33 25.1-8.42 13.47-1.65 27-1.51 40.53-1.44 6.85 2.17 14.13 2.6 20.82 5.59 2.16 1 5.12-.34 7.11 2.26 2.32 3 4.87 7.19 5 9.83.77 24.36-1 48.25-20.63 66.38-9.45-2-10-9.2-9.68-16.74.18-4.45.91-8.49-6-5.4-5.15 2.3-7.87-1.82-10.31-5.44-11.74-17.36-11.72-17.39-32.1-11.82-3.22.9-6.4 1.81-9.75.81Z" style="fill:#2c3a64"/><path d="M1475.35 590c6.28-2.93 13-4.56 19.68-6.1 9.22-2.12 15.18.3 20 8.3 2 3.38 3.41 7.18 5.56 10.5 1.71 2.65 4 4.5 7.14 1.07 1.68-1.84 4-4.48 6.61-2.35 2.32 1.86 3 4.93 2.11 8.16-2.2 7.86-.06 14.27 6.72 19-6.61 11.62-2.19 22.24 2.79 32.92 1.68 3.6 4.77 6.43 5.58 10.47-10.12 3.83-19.88 8.57-29.86 12.69-8.85 3.66-18.22 7.79-28.32 3.57 4-2.44 4.51-6.11 3.73-10.3-.72-3.86-2.27-7.63-1.45-11.69 9.33-1.75 17.08-6.46 24.57-13.29-8.93.95-17.41 4-25.54-.6-14-.82-17.85-4.69-19.19-19.67-1.26-14.18-.48-28.42-.13-42.68Z" style="fill:#ffb27d"/><path d="m1919.1 1472.11 156.62-.09c14.59.14 29.18.21 43.76.44 3.23 0 6.66-1 9.63 1.27-4 .16-8 .47-12 .47h-229.76q-97.9-.07-195.81-.36c-3.21 0-6.68 1.09-9.62-1.29 2.34-7.73 6.06-15 8.58-22.64 1.21-3.68 3.16-8.1 8.68-7.62 3.39 3.2 7.61 1.78 11.41 1.73 21.93-.25 43.67 1.42 65 6.31 9.35 2.14 18.63 4.92 26.37 11.12 1 .83 2.73 1.25 3.2 2.27 4.39 9.59 12.78 8.8 21.19 8.74 30.98-.22 61.86-.24 92.75-.35Z" style="fill:#a8d19f"/><path class="cls-16" d="M1699.23 1442.3a23.61 23.61 0 0 0-8.41 14.08c-1.24 6.17-3.26 12.24-8.86 16.18-13.72 3.26-27.61 1.27-41.43 1.31-2.11-3.73-1.56-8 1.82-9.55 9-4 14.44-11.81 21.24-18.17 3.54-6.56 1.86-13.67 1.52-20.41-.39-7.71 1.73-12.33 9.21-15.22 7-2.72 13.55-6.78 20.29-10.26 3.41 4 7.11 7.78 10.17 12 7 9.66 6.71 14.59-.58 23.91-1.61 2.1-3.31 4.1-4.97 6.13Z"/><path d="M1609.24 996.22c7.71 3.85 15.27 8.17 24.27 8.22-.6 1.17-1.59 2.29-1.76 3.52-2.23 16.36-13.32 26.78-24.67 37-.39.35-1.23.2-2.63.39-1.23-7.2 2.42-13.79 2.87-20.62-1.85-1.68-2.23.3-2.94.93-3 2.7-4.36 2-5-1.93-1.86-11.05 1.8-20.04 9.86-27.51Z" style="fill:#ffb27e"/><path class="cls-18" d="M607.82 1246q-.15-16.32-.29-32.64c-.22-21.6-4.49-42.23-14.52-61.51-5.68-10.93-10.6-22.26-17.37-32.6a120.65 120.65 0 0 0-7.35-10.66c-4.43-5.43-4.62-5.35-9.31.37-7.25 8.82-16.94 13.83-27.4 17.55-24.18 8.61-49.26 10.57-74.68 9.85a178 178 0 0 1-41.31-5.95 43.25 43.25 0 0 1-10.18-4c-7.48-4.23-8.7-10-3.07-16.29 15.87-17.85 34.12-31.56 59-34.08 13.51-1.37 26.94-3.57 40.39-5.47 5-.7 10.18-1.65 12.61-6.57 1.32-2.66-4.76-6.36-12.67-7.46-20.68-2.88-40.18-.6-57.83 12a148.38 148.38 0 0 1-35.4 18.25c-28.19 10.37-51.48 3.18-70.48-19.27-13.84-16.35-24.71-34.64-33.78-54a43.55 43.55 0 0 1-1.8-6.15c8.2.93 16.05 2.81 23.8 2.46 11.22-.51 22.5-1.73 33.44-4.76 7-2 14.13-3.79 20.8-6.89a44.12 44.12 0 0 0 6.29-3c2.69-1.82 6.59-3.62 6.17-7.19-.52-4.32-5.18-4.81-8.6-5.36a394.68 394.68 0 0 0-48.54-4.63c-10.95-.42-21.88-1.21-32.81-1.92-8.16-.53-14.49-4.61-19.45-10.84-7.69-9.66-12.13-20.69-12.27-33.08-.14-11.61-.38-23.19 1.88-34.8 4.22-21.64 17.21-35 37.71-40.9 16.26-4.67 33-7.48 50.07-4.49a2.81 2.81 0 0 0 1 0c14.31-2.44 22 5.07 29.46 16.51 16.52 25.33 34.11 50 55.35 71.82 2.81 2.87 5.64 5.71 9.36 7.37 1.7.76 3.48 2.51 5.44.86 1.71-1.43 1.73-3.48 1.07-5.51-2.35-7.28-4.49-14.62-7.72-21.59-8.67-18.75-18.51-36.89-28.58-54.91-1.23-2.21-4.21-4.46-1.94-7 1.82-2.06 5-1.07 7.64-.68a250.76 250.76 0 0 1 47.3 11.75c19.77 7 39.11 15 58.29 23.48 6.06 2.68 8.38 6.15 8.16 12.91q-.8 24.48-.05 49c.35 11.92 1.2 23.88 3.9 35.56a39.29 39.29 0 0 0 3.71 10.27c2.53 4.54 7 4.37 9-.42a41.42 41.42 0 0 0 2.94-13.55c1-16-1-31.85-3-47.66-1.3-10.12-2.84-20.2-4.36-30.89 4.63-.38 8.17 1.36 11.53 3.17 11.46 6.16 22.41 13.11 31.75 22.3 4.75 4.68 9.1 9.82 14.21 14.06 18.51 15.4 24.81 49 9.65 75.2-9.56 16.57-22.91 29.36-38.54 39.73-6.29 4.17-8 8.84-7.28 15.74 2.68 24.07 9 47.15 21 68.18a178.68 178.68 0 0 1 22.74 71.65c.75 7.59.14 15.32.15 23-3.28 8.68-8.85 7.83-15.23 3.68Z"/><path d="M607.82 1246c5.21-.63 11.33 2.41 15.19-3.72.58 2 1.49 3.78 3.91 3.8h22.82c2.41 0 3.36-1.73 3.9-3.78 6 .59 11.86 2.26 17.91.74a79.65 79.65 0 0 0 16 0c5.21 1 10.41-.32 15.63-.1 6.57.43 13.13.21 19.68.5 3.58.16 7.3.23 9.78 3.58 2.12 4 1.92 8.37 1.93 12.68q.06 99.69 0 199.4c0 4 .1 8-1.65 11.73-2.25 3.63-5.93 2.35-9.06 2.36q-114.35.11-228.7 0c-9.3 0-11.16-2.83-7.25-11.45 5.36-11.8 15.21-17.78 27.73-18.09 31.87-.79 63.75-.32 94.27-.27-37.8-18.38-68.33-46.6-90.81-83.64a11 11 0 0 1-1.72-5.67c.4-4.27-2-7.63-3.76-11.16-10.73-21.18-18.14-43.32-20.55-67.09-.5-4.9-2-9.72-1.74-14.74.18-3.62-.42-6.57-4.89-7.17-2.44-.33-3-2.37-2.71-4.53.36-2.49 2.28-3 4.4-3.09 2.65-.08 5.32-.07 8-.08Z" style="fill:#efcbab"/><path class="cls-12" d="M517.35 1354.06c7.16 6.17 11.07 14.81 16.48 22.27 22.24 30.64 51.49 52.25 85.79 69-2.48 1.61-5 1-7.28 1-31.63 0-63.25 0-94.88.07-16.17.06-25.61 8-29.19 24.37 2.28 2.58 5.46 1.56 8.25 1.56q117.35.06 234.7 0l.21 1.37c-4.32.16-8.64.46-13 .46q-213-.06-426-.15c-29.33 0-58.66.21-88 .27-3.65 0-7.3-.29-11-.45 3-2.24 6.44-1.26 9.68-1.28q30-.14 60 0c4.5 0 8.21-.23 10.72-5.15 10.39-20.35 28.11-32.24 48.38-41.15 19.66-8.64 40.45-12.72 61.51-15.82 9.56-1.41 18.76-4.24 28.06-6.69a10.74 10.74 0 0 0 6.49-4.13c-13.8-4.54-27.14-8.86-40.43-13.33-24.28-8.17-48.34-16.91-71.31-28.35a57.37 57.37 0 0 1-15.59-10.65c-2.43-2.46-4.73-4.93-3.45-8.71 1.35-4 5-5.25 8.58-6 9.16-1.87 18.26-1.32 27.42.73 19.15 4.27 36 13.64 52.83 23.13 17.69 10 34.21 21.8 50.13 34.39 5 3.94 9.32 4.31 14.58 1.51 4.3-2.29 8.72-4.38 13.61-6.82-14.73-12.4-29.22-23.53-42.45-36-23-21.64-46.89-42.56-63.52-70a62.38 62.38 0 0 1-7.85-19.22c-3.45-15.84 6.56-23.81 16.67-25.64 6.56-1.19 13.14-.79 19.47 2.39 14.41 7.23 24.8 18.78 34.21 31.3 21.47 28.58 38.87 59.56 53.27 92.24 7.3 16.55 7.32 16.56 23.37 8.5 9.95-5.08 19.74-10.08 29.54-15.02Z"/><path d="M731.43 1473.61a8 8 0 0 0-.21-1.37c.08-33.86.21-67.71.21-101.57q0-62.25-.18-124.49c-5-7-2.49-15.13-3-22.77-.41-6.16.1-12.36.13-18.55-.5-3.81.47-7.63-.2-11.44q-.13-68.1 0-136.19a38.11 38.11 0 0 0-.48-6.92c1-27.36.18-54.75.57-82.12q-.33-28.86 0-57.71c.64-17.17.1-34.34.26-51.51a104.35 104.35 0 0 0-.29-11.46c-.13-12.84-.07-25.68 0-38.52 0-4.63 0-9.28 3-13.21q.09-7.81.16-15.63v-320c.11-9.87.11-9.89 10-10h16q0 184.43.05 368.85 0 320.37.08 640.73c0 4.1-1.78 8.7 1.92 12.3 4.33.07 8.65.2 13 .2h631.2c4.66 0 9.32.18 14 .28-3.46 3-7.64 1.52-11.44 1.53q-291.84.12-583.69 0c-30.47.16-60.78-.23-91.09-.43Z" style="fill:#9abcef"/><path class="cls-4" d="m731.19 795.78.15 52.12c-2.09 3.65-.58 7.62-1.05 11.42-.31 17.12-2.57 34.27 1.07 51.31q0 28.82-.07 57.65-9.66 18.39-20.23 36.3c-19.31-12-36.42-26.26-50.85-44-13.48-16.6-21.63-35.4-22-56.32-.38-19.08 5-37.47 18.5-52.13 16.67-18.07 34.1-35.35 55.58-47.85 5.96-3.51 11.83-7.39 18.9-8.5Z"/><path class="cls-18" d="M711.06 1004.58c3.29-14 10.57-25.83 20.23-36.3v72.39c0 3.36-.2 6.59-1.81 9.6.46 3.71-1.87 6.21-3.84 8.86-15.59 20.95-26.47 44.5-37.27 68-10.88 23.73-12.85 49.32-14.24 74.9-.56 10.27 0 20.59-.14 30.89 0 3.92.64 8-2.24 11.44-6.4 2.2-12.75 4.06-18.15-2.14-.17-8-.21-16-.53-23.93-1.48-36.87 8.21-71 25.72-103 14.47-26.47 25-54.24 29.6-84.06 1.39-8.79 3.12-17.64 2.67-26.65ZM1273.32 244.22c12.89-15.78 28.53-28.52 44.88-40.46 27.35-20 56.43-37.12 86.18-53.31 32.11-17.48 65.28-32.57 98.69-47.28 20-8.82 40.39-16.79 60.61-25.15 2.5-1 4.92-2 7.65-1.77-8.4 6.81-18.86 9.6-28.43 13.91-19.11 8.6-37.58 18.42-56.4 27.57a923.84 923.84 0 0 0-118 68c-19.11 13.07-38.15 26.34-54.67 42.83-5.35 5.33-12.37 9-16.49 15.64Z"/><path class="cls-18" d="M1571.33 76.25c.44-.88 1.81-1.89 2-1.46.89 2.29-1.31.91-2 1.42Z"/><path class="cls-12" d="M1663.59 1446.15c-3.16 8.76-7.83 15.92-17.8 18.12-5.07 1.11-4.58 5.8-5.26 9.6q-61.68.17-123.37.25c-3.43 0-7.38 1.53-10.21-2-.9-2.82-.15-4.48 3.08-4.43.64.09 1.29.22 1.94.34 16.88 3.1 18.12 1.87 18.49-15.07.34-15.77-1.56-31.6 1.2-47.3 2.86-4.64 6.94-3.28 10.57-1.64 5.67 2.58 8.49.39 10.82-4.76 5.52-12.16 11.43-24.12 21.73-33.2 2.51-2.2 4.93-4.46 8-5.85 6.06-2.72 11.7-2.3 16.66 2.36s4.83 10 2.43 15.64c-3.6 8.4-9.46 15.24-15.7 21.76-3.46 3.61-7.16 7-10.54 10.67-1.66 1.8-5.05 3.5-2.93 6.5 1.78 2.52 5 1.58 7.38.46 9.36-4.33 18.15-9.8 27.79-13.61 6.86-2.7 13.76-5.14 21.09-5.93 5.67-.61 11.25.48 13 6.67 1.58 5.63-3.28 8.25-7.35 10.52-14.15 7.9-30 10.51-45.9 14.09 19.59 7.56 39.77 9.2 60 10.27 4.9.26 10.09-1.09 14.42 2.5Z"/><path class="cls-16" d="M1509 1468.27c-.68 1.29-1.37 2.58-2 3.88-2.82 2.16-6.11 2.1-9.44 2.1h-70.26c-2.89 0-6 .64-8.18-2.23 1-6.9 6.49-8.44 11.93-9.91 4.41-1.19 9-1.88 13.34-3.19 12-3.58 22.07-9.91 28.86-20.75a87.63 87.63 0 0 1 37.09 4.3c2.71 8.73 4.12 17.44-1.34 25.8Z"/><path class="cls-10" d="M1509.63 1442.33a104.83 104.83 0 0 1-36.43-4.2c-5.74-7.37-4.62-16.38-5.41-24.74-2.4-25.36-4.68-50.77-5.89-76.21-.75-15.57-1.9-31.1-3-46.64-1.49-21.78-3.49-43.52-5.17-65.29-1-13.22-1.74-26.45-2.79-39.66-1.66-20.77-3.53-41.52-5.22-62.29-.24-3 0-6 0-9 3.34-.13 4.38 2.65 5.76 4.78q46.68 72.41 93.12 145a20.47 20.47 0 0 1 2.77 6.39c1.27 15-2.32 29.54-4.11 44.21-1.91 15.71-4.7 31.33-7.89 46.86-5.31 23.59-9.79 47.4-16.86 70.56-1.25 4.44-.6 11.51-8.88 10.23Z"/><path class="cls-16" d="M1545.2 1268.2c-10.23-13.11-18.11-27.78-27.46-41.48-10.48-15.35-20-31.34-30-47q-20.9-32.71-41.88-65.38l-4.82-56.25q-2.65-30.57-5.34-61.16c7.33-.53 14.45 1.22 21.64 2.09 7 20.43 16.09 40 24.43 59.92q17.7 42.27 36.24 84.17c8.73 19.76 18.13 39.23 27.2 58.84 1.67 3.61 4 7 4.56 11a32.15 32.15 0 0 1 1.55 6.79c.75 13.62-1.16 27.11-2.16 40.64a10.23 10.23 0 0 1-3.96 7.82Z"/><path class="cls-21" d="M1152.37 530.19h188.93c5.44 0 10.63-.2 13.85 5.57 4 7.23 1.3 15-6.56 17.74-3.25 1.13-6.6.71-9.91.71H965.83c-3.63 0-7.28.45-10.83-1.12-6.24-2.77-8.66-6.84-7.6-13.46.94-5.92 4.31-8.85 11.05-9.34 2.65-.2 5.33-.06 8-.06Z"/><path class="cls-11" d="M1439.4 760.26c3.51 6.1.08 12.26-.82 18a277.23 277.23 0 0 0-2.78 28.5c-.59 11.56-3.23 23-2.47 34.6.15 2.45-.93 4.51-2 6.59-7.6 3.28-15.33 6.15-23.21 8.76-10.32 3.42-19.53 1.5-28.59-3.58-11.07-6.22-20.63-14.39-29.79-23.06-16.89-16-31.79-33.76-46.37-51.81-1.85-2.3-3.34-5-6.07-6.44-1.39-1.21-3.31-1.86-4-3.79.36-4.44-3.33-6.72-5.24-10-3.52-6-9.89-10.28-10.73-17.87 4.17-10.42 10.3-12.65 21.92-8 10.5 6.82 21 13.68 31.52 20.43 3.3 2.11 6.24 5 10.36 5.54a8 8 0 0 1 4.38 3.92c14.92 9.78 29.94 19.41 44.69 29.44 5.26 3.57 9.38 3.18 14.27-.61a249.09 249.09 0 0 0 19.53-16.73c5-4.79 9.52-10.07 15.4-13.89Z"/><path class="cls-21" d="M1221.42 689.68c-3.62-2.55-7.75-1.43-11.65-1.43q-140.94-.11-281.87-.06a74.8 74.8 0 0 1-9-.14c-6.88-.85-9.46-3.78-9.61-10.3-.17-7.31 2.31-10.37 9.59-11.33a60.62 60.62 0 0 1 8-.15h390.82a62.58 62.58 0 0 1 8 .14c7.28.94 9.8 4 9.67 11.25-.12 6.63-2.61 9.47-9.52 10.38a60.73 60.73 0 0 1-8 .15h-82c-3.59 0-7.37-.89-10.7 1.37-1.15 1.71-2.44 1.67-3.73.12Z"/><path class="cls-22" d="M1121.32 1058.24h-202c-8.35-.18-9.59-1.14-10-7.63-.47-7.51 1.83-10.89 8.7-12.1a46.11 46.11 0 0 1 8-.25h395a40.67 40.67 0 0 1 7 .19c5.53 1 7.78 4.88 7.33 12.16-.38 6-1.65 7.24-8 7.61-2.32.13-4.66 0-7 0ZM1124.35 870.22h200.84c8.81.18 10 1.14 10.14 8.49.19 8.16-2.35 11.07-10.17 11.48-2 .11-4 0-6 0H925.48c-2 0-4 .09-6 0-7.13-.38-10-3-10.15-9.49-.21-7 2.71-10.08 10.18-10.46 2.33-.12 4.66 0 7 0ZM1117.26 1254.22H889.38c-2.66 0-5.33 0-8-.08-3.44-.17-5.52-1.9-6-5.46-.5-3.89 1-6.65 4.72-7.61a32 32 0 0 1 7.88-.8h460.76c3.33 0 6.64-.14 9.73 1.59 2.41 1.35 4.82 2.64 4.46 5.89-.33 2.93-2.43 4.75-4.93 5.81-3.15 1.34-6.58.67-9.89.67q-115.41.01-230.85-.01Z"/><path class="cls-21" d="M1151.31 518.27h-119.87c-2.33 0-4.67.14-7-.06-6.86-.58-9.25-3.69-9.08-11.52.15-7.07 2.59-9.9 9.16-10.45 2-.17 4-.05 6-.05h242.73c2 0 4-.09 6 0 6.67.41 7.75 1.58 8.11 8.56v1c.31 11.57-.51 12.47-12.19 12.48q-61.93.06-123.86.04Z"/><path class="cls-22" d="M1117.25 1276.24H881.44c-3.34.06-6-.62-6.06-4.75-.06-3.76 1.11-6.62 5.31-7.07a67.57 67.57 0 0 1 7-.17h461.62c3.9 0 8.07-1 11.34 2.38 1.72 1.76 3 3.66 2.06 6.19a5 5 0 0 1-4.65 3.23c-3 .16-6 .16-9 .16ZM1118.31 1302.24H889.47a86.71 86.71 0 0 1-9-.21c-3.57-.38-5.16-2.74-5-6.24a5.15 5.15 0 0 1 4.9-5.33 60.08 60.08 0 0 1 7-.22h463.67a47.72 47.72 0 0 1 7 .23c3.12.47 4.5 3 4.53 5.72s-1.35 5.35-4.44 5.78a63.79 63.79 0 0 1-9 .27ZM1043.33 902.22h120.88c10.06.12 14.67 7.32 10.53 16.45a5.26 5.26 0 0 1-4.57 3.35c-2.66.17-5.32.21-8 .21H920.44c-10.06-.12-14.69-7.33-10.54-16.44a5.81 5.81 0 0 1 5.57-3.5c2.67-.07 5.33-.08 8-.08Z"/><path class="cls-21" d="M1041.9 700.19h123c9.3.16 10.44 1.17 10.41 9.21s-2.49 10.51-10.83 10.76c-4.33.13-8.67 0-13 0h-231c-10.16-.29-14.3-6.42-10.8-15.92a5.55 5.55 0 0 1 5.23-3.92c2.66-.15 5.33-.14 8-.14Z"/><path class="cls-22" d="M1042.24 1072.22h122.87c8.87.17 10 1.1 10.2 8.39.24 8.25-2.24 11.14-10 11.58-2 .11-4 0-6 0H925.53c-2.33 0-4.67.14-7 0-8-.67-12.62-10.32-8.21-17.21a5.79 5.79 0 0 1 5.06-2.66c2.66-.07 5.32-.08 8-.08ZM1086.39 1316.22h198.84c3 0 6-.06 9 .22s4.77 2.21 4.94 5.28c.18 3.49-1.39 5.83-5 6.28a54.1 54.1 0 0 1-7 .22H887.55a36.94 36.94 0 0 1-8-.39c-3.52-.79-4.31-3.7-4.2-7s2-4.63 5.17-4.6h8Z"/><path class="cls-23" d="M1293.32 768c2.26.29 3.83 1.3 4 3.79-24.24 5.72-48.86 9.2-73.5 12.73-46.24 6.64-92.76 6.89-139.27 5.83a888 888 0 0 1-141.34-15c-21.55-4-43-8.5-63.92-15.11s-41.23-15.1-58.36-29.48c-6.4-5.37-12.24-11.26-14-20-.88-2.36.27-2.88 2.33-2.57 5.3 11 14.31 18.1 24.54 24 21.79 12.64 45.66 19.7 69.86 25.7 32.88 8.15 66.3 13.14 100 16.54 20.12 2 40.32 2.93 60.48 4.33 36.21 2.5 72.43 2.21 108.56.76 39-1.57 78-4.82 116.62-11.41a31 31 0 0 1 4-.11ZM927.07 614.13c15.2-6 31.28-8.66 47.22-11.47 26.46-4.65 53.18-7.19 80-9a912.27 912.27 0 0 1 108.67-.91c51.82 2.73 102.88 11 152.57 26.52a9.41 9.41 0 0 1 1.74 1c0 4-2.47 2.74-4.61 2.21-14.89-3.31-29.7-7-44.68-9.85-21.84-4.15-43.87-6.88-66-8.9a865.47 865.47 0 0 0-87.56-3.67c-28.24.28-56.52.91-84.69 2.69a714.15 714.15 0 0 0-98.49 13.14c-1.18-1.06-3.24-.17-4.17-1.76ZM1221.42 689.68l3.76-.08c8.49 1.44 17 3 25.48 4.26 4.58.68 9.28 1.52 13.82-.2a9.4 9.4 0 0 1 7.72.77c13.44 6.65 28.38 6.3 42.58 9.38 6.14 1.33 12.44 1.9 18.67 2.82 5.59 8.42 1.85 16-2.14 23.54-11.5 0-22.48-4.15-34-4.25-4.43-4.75-7.63-10.67-13.4-14.52-1.92 14.47-6.08 16.44-18.55 9.24-14.88-2.25-29.76-4.48-44.63-6.8a15.23 15.23 0 0 1-3.5-1.49c-2.53-8.07-1-15.42 4-22.11Z"/><path class="cls-22" d="M874.82 1036.28c9.73.36 17.06 9.46 13.74 18.49-1.87 5.08-1.41 8.07 1.69 12.37 3.4 4.71 1 15.94-2.81 19.6-4.3 4.11-15 6-20.32 3.37-4.75-2.32-10-4.3-9.79-11.09.08-2.43.42-4.79 2.89-5.86 2.23-1 3.74.72 5.07 2.18 1.12 1.21 1.85 2.84 3.09 3.87 2.3 1.92 4.9 3.82 8.08 2.17 2.75-1.43 4.73-3.65 4.75-7.05 0-3.56-1.92-5.37-5.24-6.23a16.13 16.13 0 0 1-4.5-2c-2.52-1.61-2.55-3.92-.64-5.86s4.28-3.1 6.22-4.87c2.19-2 3-4.58.87-7a5.75 5.75 0 0 0-8.1-.9c-1.81 1.27-2.88 3.55-4.4 5.28a3.53 3.53 0 0 1-3.62 1.08c-2-.48-2.29-2.11-2.42-3.83-.5-6.69 7.76-14 15.44-13.72ZM875.11 914.34c4.33 0 8.3-.07 12.27 0 2.34.06 3.63 1.42 3.66 3.8s-1.27 3.86-3.57 3.89c-8.33.11-16.67.35-25-.08-4.46-.23-5.64-3-3-6.8 4.16-6 8.87-11.57 13.22-17.41 2.18-2.92 4.6-5.83 6-9.13 1.24-3 1.75-6.77-2.27-8.63s-6.18.73-7.82 3.89a24.14 24.14 0 0 0-1.38 3.73c-.64 2-1.54 3.91-3.92 3.85-2.85-.06-4.15-2.49-4.42-4.68a15.13 15.13 0 0 1 4.87-13.46c6.42-5.78 19.94-3.7 24.75 3.48 3.83 5.72 3.53 11.8-1.38 18.44-3.34 4.53-7.14 8.72-10.65 13.13-1.02 1.32-1.78 2.83-1.36 5.98Z"/><path d="M881.29 692.92v12c.05 5.45-1.69 12 7.5 11.81 1.83 0 2.31 2.1 2.3 3.86 0 2.18-.89 4.43-2.93 4.74-8.86 1.33-17.82 1.9-26.59-.43a4.55 4.55 0 0 1-3.39-5.44 4.29 4.29 0 0 1 4.61-3.13c6.38.37 6.74-3.59 6.61-8.4-.2-7-.22-14 0-21 .15-4.66-.08-8.56-5.83-9.76-2.19-.45-4.46-1.91-3.75-5 .62-2.65 2.65-3.77 5.14-3.92 13.62-.79 17-5.59 16.34 13.63-.11 3.71-.01 7.38-.01 11.04Z" style="fill:#bcd6fc"/><path d="M1312.7 622.49c1.76-.28 3.58-.41 4.61-2.21 36.21 10.46 70.63 24.77 100.45 48.37 8.5 6.72 16.71 14.22 19.32 25.64-.82 1.36-.12 3.41-1.93 4.34-6.93-18.12-21.55-28.92-37.12-38.71-25.18-15.86-52.67-26.53-80.94-35.35-1.59-.49-3.24-.71-4.39-2.08Z" style="fill:#c85e52"/><path d="M1435.15 698.63c.17-1.66.38-3.3 1.93-4.34 4.47 9.24 1.48 17.34-4 24.9-6.83 9.36-16.6 15-26.56 20.28-17.63 9.26-36.52 15.22-55.66 20.46-1.85.51-4 .24-5.29 2.18a6.68 6.68 0 0 1-4.37-3.92c12.61-3.94 25.31-7.66 37.83-11.88a160.17 160.17 0 0 0 34.12-15.95 81.79 81.79 0 0 0 12.48-9.79c6.37-6.02 10.1-12.99 9.52-21.94Z" style="fill:#c85d51"/><path d="M1265.4 720.64c1.59.28 3.19.52 4.78.84 10.3 2.1 11.1 1.33 9.5-9.12-.3-1.94-1-4.26 1-5.43 2.46-1.46 4.69 0 5.78 2.19 3 6 11.79 8.29 10.88 16.8-.46 2.43 1.05 4.27 1.92 6.3-8.4-.36-16.74-.56-21.92 8-5.29-5.75-10.03-11.8-11.94-19.58Z" style="fill:#feb17d"/><path class="cls-28" d="m1221.27 690.24-4 22.11c-8.89-3.58-16.6-9.07-25.31-15.31 10.38-3.04 19.45-6.46 29.31-6.8Z"/><path d="M1494.68 652.38c10.52.18 21-.2 32.5-4.34-6.72 10-15.18 14.9-24.09 19.29-2.83 1.39-5.1.27-7.44-1.06q-.48-6.94-.97-13.89Z" style="fill:#ed9960"/><path class="cls-28" d="M1331.31 730.17c0-7.91 3.87-15.47 2.14-23.54a32.51 32.51 0 0 1 3.84.5c9.92 2.54 13.23 9.45 9.09 18.94-2.32 5.34-6.21 6.4-15.07 4.1Z"/><path d="M809.31 708.23c-.77.86-1.55 1.71-2.33 2.56a4.41 4.41 0 0 1-1.57-4.6 8.26 8.26 0 0 0 .15-7.87c1.22-8.91 6.22-15.32 13.37-20.33 2-.82 2.43.28 2.3 2-7.65 7.86-13.6 16.44-11.92 28.24Z" style="fill:#ca655a"/><path d="M897.05 623.89c6.25-4 13.31-5.71 20.39-7.39.79.64 2 .77 2.28 2-7.12 3-14.34 5.52-22.12 6Z" style="fill:#cd766e"/><path d="m821.23 680-2.3-2c4-4.39 9-7.34 14.19-9.93 2.15-.88 2.45.17 2.07 2Z" style="fill:#cd746c"/><path d="m919.72 618.52-2.28-2c2.63-.74 5-2.5 7.95-2 .78.56 1.93.67 2.2 1.84-2.22 2.21-5.12 1.9-7.87 2.16Z" style="fill:#c75b4e"/><path d="M885.25 627.91c1.48-2.31 4.1-2.31 6.32-3.13a3 3 0 0 1 2 1.67c-2.34 2.26-5.55 2.26-8.38 3.23-.61-.4-.8-.8-.59-1.19s.45-.58.65-.58Z" style="fill:#d28f8a"/><path d="M877.32 650.19c.94-1.43 2.19-2.28 3.93-1.7.36.12.84 1 .7 1.32-1 2-2.78 2.28-4.74 2.21q-.93-.67-.57-1.26c.23-.38.45-.57.68-.57Z" style="fill:#dcbbbe"/><path class="cls-23" d="M805.56 698.32c2.49 2.67 2.52 5.3-.15 7.87a16 16 0 0 1 .15-7.87Z"/><path class="cls-36" d="M861.6 656.54c-1.52 2.27-4.21 2.33-6.37 3.37-.63-.42-.83-.83-.6-1.22s.45-.56.68-.56c1.35-2.2 3.56-2.17 5.74-2.23Z"/><path d="m835.19 670-2.07-2a5.27 5.27 0 0 1 3.78-2c2.26-1 2.57.21 2.35 2Z" style="fill:#d39390"/><path d="m839.25 668-2.35-2a6.11 6.11 0 0 1 4-2 2.11 2.11 0 0 1 3.2.56 9.35 9.35 0 0 1-4.85 3.44Z" style="fill:#d59996"/><path d="M861.32 638.31c-1.05 1.27-2.63 2.46-3.21.15-.45-1.8 1.76-2.05 3.33-2.1.62.47.82.92.57 1.34s-.46.61-.69.61Z" style="fill:#dec1c4"/><path d="m844.06 664.57-3.2-.56a16.13 16.13 0 0 1 6.56-3.44c.61.49.81 1 .61 1.47s-.4.74-.6.74c-.68 1.42-1.99 1.67-3.37 1.79Z" style="fill:#d69e9c"/><path class="cls-41" d="M875.36 632.27c1.09-2.78 3.85-2.67 6.06-3.52 0 .42-.09.84-.13 1.26-1.34 2.52-3.67 2.35-6 2.19ZM873.25 652.15c-1.4 2.38-3.66 2.22-5.94 2l.1.13c1.19-3 3.72-2.07 6-2Z"/><path d="m893.61 626.45-2-1.67 5.48-.89.54.63c-.82 1.76-2.43 1.82-4.02 1.93Z" style="fill:#cd756d"/><path d="m927.59 616.37-2.2-1.84a1.73 1.73 0 0 1 1.68-.4c1.59.11 3.15.31 4.17 1.77Z" style="fill:#c65447"/><path class="cls-41" d="M869.4 634.31c1.43-2.31 3.62-2.37 6-2l-.06-.07c-1.24 3-3.86 1.77-6 2Z"/><path class="cls-36" d="M867.31 654.17c-1.23 2.41-3.62 2-5.71 2.37l-.54-.64c1.68-2.26 4.06-1.73 6.35-1.6Z"/><path class="cls-44" d="M877.32 650.19a16 16 0 0 1-.11 1.83l-4 .13.12.15c.53-2.3 2.37-1.98 3.99-2.11Z"/><path class="cls-45" d="M855.31 658.13c0 .59-.06 1.19-.08 1.78l-4 .27.1.11c.53-2.21 2.27-2.15 3.98-2.16Z"/><path class="cls-45" d="M847.43 662.78v-2.21l4-.28-.1-.11c-.47 2.14-2.33 2.08-3.9 2.6Z"/><path class="cls-44" d="M869.28 634.16c-.56 2.21-2.26 2.14-4 2l.12.14c.54-2.24 2.25-2.15 4-2Z"/><path class="cls-41" d="M861.32 638.31a12.77 12.77 0 0 1 .12-1.95l4-.05-.12-.14c-.87 1.62-2.32 2.02-4 2.14Z"/><path d="M881.29 630a6 6 0 0 0 .13-1.26l3.83-.83v1.76Z" style="fill:#ce7b74"/><path class="cls-1" d="M1545.2 1268.2c2.63-16.54 2.49-33.31 4.2-49.93 2.26-1.28 2.81.93 3.95 1.94 21.26 43.51 44.47 86 69 127.69 11.94 20.28 23.69 40.67 35.94 60.76 3.78 6.2 5.94 12.31 5.27 19.56-.42 4.61-.26 9.28-.37 13.92a235.75 235.75 0 0 1-62.26-5.94c-5.79-1.37-11.41-3.22-17.38-7.71 11.31-3 21.47-5.76 31.71-8.22a82.59 82.59 0 0 0 21.18-8.65c2.3-1.3 4.89-3.14 4-6.2s-3.52-4.83-6.81-5c-8.89-.4-17 2.86-25 6a165 165 0 0 0-25.76 13c-6.13 3.77-11.2 3.38-16.28-2.37 1.15-3.3 4.35-5.29 6.78-7.8 7.4-7.65 15.28-14.84 21.45-23.63a47.27 47.27 0 0 0 5.63-10.53c1.34-3.54 1.59-7.3-1.48-10.24s-6.7-5.1-11.63-3.76c-9.1 2.46-14.21 9.61-19.51 16.32s-8.86 14.84-12.51 22.69c-4.69 10.1-4.69 10.15-14.46 5.9a17.75 17.75 0 0 0-7.66-2c-4-4.41-3.25-9.83-2.92-15 .59-9.14 1.46-18.27 2.7-27.36 2.43-15.38 5.19-30.72 7.21-46.16 2.17-15.63 5.24-31.29 5.01-47.28Z"/><path d="m1553.35 1220.21-3.95-1.94.33-5.3c2.27 1.89 3.92 4.03 3.62 7.24Z" style="fill:#b5b2bb"/><path d="M701 1446.27h-46.93c-5.86 0-11.08-2.14-16.09-4.77-23.08-12.13-44.53-26.73-62.13-46-28.07-30.76-47.26-66.25-54.82-107.67-1.55-8.49-2.11-17-3.48-25.54-1.14-7 .27-8 7.52-8.07q19.49-.2 39 0c6.89.07 8.88 1.8 9.11 8.86 1 30.54 10.09 58.88 24.47 85.37 18.37 33.83 43.67 61.54 77 81.63 8.71 5.28 18.18 9.23 26.35 16.19Z" style="fill:#ffebdc"/><path class="cls-1" d="M671.78 1244.41c-.08-17.27-1.08-34.61 0-51.81 1.78-28.6 7.11-56.41 21.28-82 6.9-12.47 12.7-25.56 20.07-37.81 4.8-8 10-15.68 16.39-22.48 2.62 1.91 1.92 4.74 1.92 7.3q0 68-.16 136.09c-1.6 3.65-3.48 7.13-6.78 9.53-13.53 9.84-23.9 22.47-32.48 36.69-1.19 2-2.4 4-5 4.43a15.67 15.67 0 0 1-15.24.06Z"/><path d="m731.31 1203.75-.06 42.43H708.9c-2.87 0-5.93.5-8-2.27-2-4.74 1-8.39 3-11.92 6.73-11.66 14.1-22.86 27.41-28.24Z" style="fill:#fbecdb"/><path d="M731.31 1203.75c-13.42 10.91-24.33 23.72-30.44 40.17-4.53 3.11-9.14 3.07-13.83.39 8-16 19.25-29.41 33.08-40.72 3.84-3.15 7.44-6.61 11.15-9.92q.03 5.04.04 10.08Z" style="fill:#5d9fae"/><path d="M731.36 910.63c-4.89-11.54-4.68-23.74-3.45-35.72.57-5.53.8-11.12 1.55-16.64.6-.91 1.22-1 1.86 0l.04 52.36Z" style="fill:#f2eada"/><path d="M731.32 858.23h-1.86c.19-3.53-1.38-7.38 1.88-10.36-.01 3.47-.01 6.91-.02 10.36Z" style="fill:#dce4d8"/><path d="m1533.08 1361.75.22 42.37c0 20.14 0 40.27-.14 60.41-.05 7.71-.22 7.76-7.75 8-4 .11-7.92-.06-11.88 0-2.93 0-4-1.78-4.53-4.22l.63-25.94c4.75-.85 4.71-5 5.67-8.36 6.27-22.35 11.68-44.91 16.09-67.7.31-1.65.25-3.38 1.69-4.56Z" style="fill:#e8f2fd"/></g></g></svg>